<?xml version="1.0" encoding="utf-8"?>
<!-- Generator: Adobe Illustrator 27.3.1, SVG Export Plug-In . SVG Version: 6.00 Build 0)  -->
<svg version="1.1" id="Layer_1" xmlns="http://www.w3.org/2000/svg" xmlns:xlink="http://www.w3.org/1999/xlink" x="0px" y="0px"
	 viewBox="0 0 528 153.6" style="enable-background:new 0 0 528 153.6;" xml:space="preserve">
<style type="text/css">
	.st0{fill:#F07020;}
	.st1{fill:#FFFFFF;}
	.st2{clip-path:url(#SVGID_00000075123337428033257930000013877146649588459930_);enable-background:new    ;}
	.st3{enable-background:new    ;}
	.st4{opacity:0.35;fill:#F07020;enable-background:new    ;}
	.st5{fill:#EDEDED;}
</style>
<g>
	<circle class="st0" cx="75.1" cy="77.7" r="70.8"/>
	<circle class="st1" cx="75.1" cy="77.7" r="53.1"/>
	<g>
		<defs>
			<circle id="SVGID_1_" cx="75.1" cy="77.7" r="51.2"/>
		</defs>
		<clipPath id="SVGID_00000080184893111643141290000016755551359253550733_">
			<use xlink:href="#SVGID_1_"  style="overflow:visible;"/>
		</clipPath>
		<g style="clip-path:url(#SVGID_00000080184893111643141290000016755551359253550733_);enable-background:new    ;">
			<path class="st0" d="M92.7,82.9l-1.1,1.6c-1.7,1.9-3.8,3.5-6.4,4.6c-2.6,1.2-5.5,1.8-8.8,1.9c0,2.5-0.5,4.8-1.5,6.9
				c-1,2.1-2.4,3.9-4.1,5.4c-1.7,1.5-3.8,2.7-6.2,3.6c-2.4,0.9-5,1.3-7.7,1.3c-9.3,0-17.4-4.7-24.3-14.2l8.9-6.3
				c1.3,1.9,2.6,3.4,3.9,4.7c1.3,1.3,2.6,2.3,3.8,3s2.5,1.3,3.8,1.6c1.3,0.3,2.6,0.5,3.9,0.5c1.2,0,2.4-0.2,3.4-0.5
				c1.1-0.3,2-0.8,2.8-1.3c0.8-0.6,1.4-1.3,1.8-2.2c0.5-0.9,0.7-1.8,0.7-2.9c0-1.2-0.2-2.2-0.5-3.2c-0.4-0.9-0.9-1.7-1.6-2.4
				s-1.5-1.1-2.4-1.5c-0.9-0.3-2-0.5-3.1-0.5c-1.5,0-3.9,0.7-6.9,2.1V73.9c2.2-1,4.4-1.6,6.8-1.6c0.5,0,1,0,1.4,0
				c0.5,0,1,0.1,1.6,0.2c0.9-1,1.4-2.4,1.4-4.3c0-0.9-0.2-1.8-0.5-2.5c-0.4-0.8-0.8-1.4-1.4-1.9c-0.6-0.5-1.3-1-2.1-1.2
				c-0.8-0.3-1.7-0.4-2.6-0.4c-3.8,0-7.1,1.9-9.7,5.6l-9.1-5.6c4.3-7.1,10.5-10.7,18.8-10.7c2.4,0,4.7,0.4,6.8,1.3
				c2.1,0.9,4,2.1,5.7,3.6c1.6,1.5,2.9,3.3,3.9,5.4c1,2,1.4,4.2,1.4,6.5c0,3.7-1,6.8-3,9.2c0.5,0.5,1,0.9,1.4,1.4
				c0.4,0.5,0.8,1,1.3,1.6c1.8,0.3,3,0.5,3.6,0.5c3.1,0,5.4-1.6,7-4.9c0.8-1.9,1.6-3.8,2.4-5.7c0.8-2,1.6-3.9,2.4-5.7
				c2.5-4.5,6.5-6.8,11.8-6.8c2.3,0,4.3,0.4,6.1,1.2c1.8,0.8,3.3,1.9,4.5,3.4c1.2,1.5,2.2,3.3,2.8,5.3c0.6,2.1,1,4.4,1,7
				c0,2.3-0.4,4.5-1.1,6.5c-0.7,2-1.8,3.7-3.1,5.2c-1.3,1.5-2.9,2.6-4.7,3.4s-3.8,1.2-5.9,1.2c-0.7,0-1.3,0-1.8,0
				c-0.5,0-1.2-0.1-2.1-0.3V79.8c0.8,0.3,1.5,0.5,2.1,0.6c0.6,0.1,1.1,0.1,1.5,0.1c1.4,0,2.6-0.6,3.4-1.7c0.8-1.2,1.2-2.6,1.2-4.4
				c0-0.8-0.1-1.5-0.3-2.3c-0.2-0.7-0.4-1.3-0.8-1.9c-0.3-0.5-0.7-1-1.2-1.3c-0.5-0.3-1-0.5-1.6-0.5c-1.2,0-2.3,1.5-3.3,4.6
				c-0.4,1.1-0.7,2.1-1.1,3c-0.4,1-0.7,1.9-0.9,2.7C94.4,79.7,93.7,81.1,92.7,82.9z M102.8,41.7c-0.8,2.5-1.8,4.7-3.1,6.6
				c-1.3,1.9-2.8,3.4-4.5,4.6c-1.7,1.2-3.6,2.1-5.6,2.7s-4.2,0.9-6.5,0.9c-2.2,0-4.4-0.3-6.4-0.8c-2-0.6-3.9-1.4-5.6-2.6
				c-1.7-1.2-3.2-2.7-4.5-4.6c-1.3-1.9-2.4-4.1-3.2-6.7h9.3c1,2.3,2.4,4,4.2,4.9c1.8,1,3.9,1.4,6.2,1.4c2.3,0,4.4-0.5,6.2-1.4
				c1.8-1,3.2-2.6,4.2-4.9H102.8z M89.5,39L83,45.5L76.3,39l6.7-6.7L89.5,39z"/>
		</g>
	</g>
	<g>
		<g class="st3">
			<path class="st0" d="M164.7,33.1h28.6l11,42.8l11-42.8h28.6v70.4h-17.8V49.9l-13.7,53.7h-16.1l-13.7-53.7v53.7h-17.8V33.1z"/>
		</g>
		<g class="st3">
			<path class="st1" d="M239.6,33.1h36.2c7.9,0,13.8,1.9,17.7,5.6c3.9,3.7,5.9,9.1,5.9,16c0,7.1-2.1,12.7-6.4,16.7
				c-4.3,4-10.8,6-19.6,6h-11.9v26.1h-21.9V33.1z M261.5,63.2h5.3c4.2,0,7.1-0.7,8.8-2.2c1.7-1.5,2.5-3.3,2.5-5.6
				c0-2.2-0.7-4.1-2.2-5.6c-1.5-1.5-4.2-2.3-8.3-2.3h-6.2V63.2z"/>
			<path class="st1" d="M308.7,33.1h58.3v15h-36.5v11.2h33.9v14.4h-33.9v13.9h37.6v15.9h-59.4V33.1z"/>
			<path class="st1" d="M378.2,103.5V33.1h36.3c6.7,0,11.9,0.6,15.4,1.7c3.6,1.2,6.4,3.3,8.6,6.4s3.3,6.9,3.3,11.4
				c0,3.9-0.8,7.3-2.5,10.1s-4,5.1-6.9,6.9c-1.9,1.1-4.4,2-7.6,2.8c2.6,0.9,4.5,1.7,5.7,2.6c0.8,0.6,2,1.8,3.5,3.7
				c1.5,1.9,2.5,3.3,3,4.4l10.5,20.4h-24.6L411.2,82c-1.5-2.8-2.8-4.6-3.9-5.4c-1.6-1.1-3.3-1.6-5.3-1.6H400v28.6H378.2z M400,61.7
				h9.2c1,0,2.9-0.3,5.8-1c1.4-0.3,2.6-1,3.5-2.2c0.9-1.2,1.4-2.5,1.4-4.1c0-2.3-0.7-4-2.2-5.2c-1.4-1.2-4.1-1.8-8.1-1.8H400V61.7z"
				/>
			<path class="st1" d="M452.4,33.1h58.3v15h-36.5v11.2H508v14.4h-33.9v13.9h37.6v15.9h-59.4V33.1z"/>
		</g>
		<polygon class="st0" points="470.6,2.2 457.8,58.3 468.6,58.3 453.8,116.3 481.4,56.3 469.6,56.3 483.4,2.2 		"/>
		<path class="st4" d="M158.7,117.3h364c0.5,0,1,0.4,1,1l0,0c0,0.5-0.4,1-1,1h-364c-0.5,0-1-0.4-1-1l0,0
			C157.8,117.7,158.2,117.3,158.7,117.3z"/>
		<g class="st3">
			<path class="st5" d="M214,149c-1,0-1.8-0.2-2.4-0.6c-0.6-0.4-0.9-1-0.9-1.7c0-0.1,0-0.2,0-0.3c0-0.1,0-0.2,0.1-0.3l1.4-6.1
				c0,0,0-0.1,0-0.1c0,0,0-0.1,0-0.1c0-0.1,0-0.2-0.1-0.3c0-0.1-0.1-0.2-0.2-0.2c-0.1-0.1-0.2-0.1-0.4-0.2c-0.2,0-0.3-0.1-0.4-0.1
				l0.1-0.5h4.2l-0.1,0.5c-0.1,0-0.3,0-0.5,0.1c-0.2,0-0.4,0.1-0.5,0.1c-0.2,0.1-0.3,0.2-0.4,0.3c-0.1,0.1-0.1,0.3-0.2,0.4l-1.3,5.7
				c0,0.1-0.1,0.3-0.1,0.4c0,0.2,0,0.3,0,0.4c0,0.2,0,0.5,0.1,0.7c0.1,0.2,0.2,0.4,0.3,0.6c0.1,0.2,0.4,0.3,0.6,0.4
				c0.3,0.1,0.6,0.2,1,0.2c0.5,0,1-0.1,1.4-0.3c0.4-0.2,0.7-0.4,1-0.6c0.2-0.2,0.4-0.5,0.6-0.8s0.3-0.6,0.3-0.9
				c0.2-0.7,0.3-1.4,0.5-2c0.1-0.7,0.3-1.4,0.5-2.2c0.1-0.4,0.1-0.7,0.2-0.9c0-0.2,0-0.4,0-0.6c0-0.1,0-0.3,0-0.3
				c0-0.1-0.1-0.2-0.2-0.2c-0.1-0.1-0.3-0.2-0.6-0.3c-0.3-0.1-0.5-0.1-0.6-0.1l0.1-0.5h4.2l-0.1,0.5c-0.1,0-0.3,0-0.6,0.1
				c-0.3,0.1-0.5,0.1-0.7,0.2c-0.2,0.1-0.4,0.4-0.5,0.8c-0.2,0.4-0.3,0.8-0.4,1.2c-0.1,0.7-0.3,1.4-0.5,2.1
				c-0.2,0.7-0.3,1.5-0.5,2.3c-0.2,0.7-0.4,1.2-0.8,1.7c-0.3,0.4-0.7,0.8-1.1,1c-0.4,0.2-0.8,0.4-1.3,0.5S214.4,149,214,149z"/>
			<path class="st5" d="M224.2,149c-0.7,0-1.3-0.1-1.8-0.4s-0.7-0.6-0.7-1c0-0.2,0.1-0.4,0.2-0.5c0.1-0.2,0.3-0.3,0.5-0.3
				c0.2,0,0.3,0,0.5,0.1s0.2,0.2,0.3,0.3c0.1,0.1,0.1,0.3,0.2,0.4s0.1,0.3,0.1,0.4c0.1,0.1,0.2,0.2,0.3,0.2c0.1,0.1,0.3,0.1,0.6,0.1
				c0.5,0,0.9-0.1,1.2-0.4s0.4-0.6,0.4-1.1c0-0.3-0.1-0.6-0.4-0.8c-0.2-0.2-0.6-0.4-1.1-0.5c-0.2-0.1-0.4-0.1-0.6-0.3
				s-0.4-0.2-0.6-0.4c-0.2-0.2-0.3-0.3-0.4-0.5s-0.2-0.5-0.2-0.8c0-0.6,0.3-1.1,0.8-1.6s1.2-0.7,2-0.7c0.2,0,0.4,0,0.6,0
				c0.2,0,0.5,0.1,0.7,0.2c0.2,0.1,0.4,0.2,0.6,0.3c0.2,0.2,0.2,0.3,0.2,0.6c0,0.2-0.1,0.4-0.2,0.5c-0.1,0.2-0.3,0.2-0.5,0.2
				c-0.2,0-0.3,0-0.4-0.1c-0.1-0.1-0.2-0.2-0.3-0.3c-0.1-0.1-0.1-0.3-0.2-0.4c0-0.1-0.1-0.3-0.2-0.4c-0.1,0-0.2-0.1-0.2-0.1
				c-0.1,0-0.2,0-0.3,0c-0.5,0-0.8,0.1-1.1,0.4s-0.4,0.6-0.4,0.9c0,0.3,0.1,0.6,0.3,0.8c0.2,0.2,0.6,0.3,1.1,0.5
				c0.7,0.2,1.1,0.5,1.4,0.8c0.3,0.3,0.4,0.7,0.4,1.1c0,0.7-0.3,1.3-0.8,1.8C225.8,148.8,225.1,149,224.2,149z"/>
			<path class="st5" d="M235.8,143c0,0.5-0.2,0.9-0.5,1.3c-0.3,0.4-0.8,0.7-1.4,0.9c-0.4,0.2-0.9,0.3-1.4,0.4
				c-0.5,0.1-1,0.2-1.5,0.3c0,0.8,0.1,1.3,0.4,1.7c0.3,0.4,0.7,0.6,1.2,0.6c0.5,0,0.9-0.1,1.3-0.4c0.4-0.2,0.7-0.6,1.1-1.1l0.4,0.3
				c-0.4,0.6-0.9,1.1-1.4,1.4s-1.2,0.5-1.8,0.5c-0.9,0-1.5-0.2-1.9-0.7c-0.4-0.5-0.7-1.2-0.7-2c0-0.6,0.1-1.2,0.3-1.7
				c0.2-0.5,0.5-1.1,0.8-1.5c0.4-0.4,0.8-0.8,1.3-1.1c0.5-0.3,1.1-0.4,1.7-0.4c0.7,0,1.2,0.1,1.5,0.4
				C235.6,142.2,235.8,142.6,235.8,143z M234.5,142.8c0-0.2,0-0.3-0.1-0.4c-0.1-0.1-0.1-0.2-0.2-0.2c-0.1-0.1-0.2-0.1-0.3-0.1
				c-0.1,0-0.2,0-0.3,0c-0.6,0-1.1,0.3-1.6,0.9c-0.5,0.6-0.8,1.4-0.9,2.4c0.3,0,0.7-0.1,1.1-0.2c0.4-0.1,0.8-0.2,1.1-0.3
				c0.4-0.2,0.7-0.5,0.9-0.8C234.4,143.7,234.5,143.3,234.5,142.8z"/>
			<path class="st5" d="M242.3,147.8L242.3,147.8c-0.2,0.1-0.3,0.2-0.5,0.4s-0.3,0.3-0.5,0.4c-0.2,0.1-0.4,0.3-0.6,0.3
				c-0.2,0.1-0.4,0.1-0.7,0.1c-0.7,0-1.2-0.3-1.6-0.8c-0.4-0.5-0.6-1.2-0.6-2.1c0-0.6,0.1-1.2,0.3-1.8c0.2-0.6,0.5-1.1,0.9-1.5
				c0.4-0.4,0.8-0.8,1.3-1c0.5-0.3,1-0.4,1.6-0.4c0.3,0,0.7,0,1,0.1c0.3,0.1,0.6,0.2,0.8,0.3l0.6-2.5c0-0.1,0-0.2,0.1-0.3
				s0-0.2,0-0.2c0-0.2,0-0.3-0.1-0.4c-0.1-0.1-0.2-0.2-0.3-0.2c-0.1,0-0.3-0.1-0.5-0.1c-0.2,0-0.4,0-0.5-0.1l0.1-0.4l2.9-0.2
				l0.1,0.1l-2,8.6c0,0.2-0.1,0.3-0.1,0.5s-0.1,0.4-0.1,0.5c0,0.3,0.1,0.5,0.2,0.6c0.1,0.1,0.3,0.1,0.6,0.1c0.1,0,0.2,0,0.4,0
				c0.2,0,0.3-0.1,0.4-0.1l-0.1,0.5c-0.4,0.2-0.7,0.3-1,0.4s-0.5,0.1-0.7,0.1c-0.3,0-0.6-0.1-0.8-0.3
				C242.4,148.5,242.3,148.2,242.3,147.8z M243.4,143.2c0-0.1,0-0.3-0.1-0.4c-0.1-0.1-0.1-0.3-0.2-0.4c-0.1-0.1-0.3-0.2-0.4-0.3
				c-0.2-0.1-0.4-0.1-0.6-0.1c-0.4,0-0.7,0.1-1,0.3c-0.3,0.2-0.6,0.5-0.9,0.9c-0.2,0.4-0.4,0.8-0.6,1.3c-0.1,0.5-0.2,1-0.2,1.6
				c0,0.3,0,0.6,0.1,0.8c0,0.2,0.1,0.4,0.2,0.6c0.1,0.2,0.2,0.3,0.4,0.4c0.2,0.1,0.4,0.2,0.7,0.2c0.3,0,0.6-0.1,0.9-0.2
				c0.3-0.2,0.7-0.4,1-0.8L243.4,143.2z"/>
			<path class="st5" d="M266.2,138.6l-0.1,0.5c-0.1,0-0.3,0-0.5,0.1c-0.2,0-0.4,0.1-0.5,0.1c-0.2,0.1-0.3,0.2-0.4,0.3
				c-0.1,0.1-0.1,0.3-0.2,0.4l-1.7,7.4c0,0,0,0.1,0,0.1c0,0,0,0.1,0,0.1c0,0.1,0,0.2,0.1,0.3c0,0.1,0.1,0.2,0.2,0.2
				c0.1,0,0.2,0.1,0.4,0.1c0.2,0,0.4,0.1,0.5,0.1l-0.1,0.5h-4.5l0.1-0.5c0.2,0,0.4,0,0.6-0.1s0.4-0.1,0.5-0.1
				c0.2-0.1,0.3-0.2,0.4-0.3c0.1-0.1,0.2-0.3,0.2-0.4l1.8-7.6h-0.1l-5.6,8.9H257l-1.3-9h-0.1l-1.5,6.3c-0.1,0.3-0.1,0.5-0.1,0.7
				s-0.1,0.4-0.1,0.6c0,0.2,0,0.3,0.1,0.4c0,0.1,0.1,0.2,0.1,0.3c0.1,0.1,0.3,0.2,0.5,0.3c0.3,0.1,0.5,0.1,0.7,0.2l-0.1,0.5h-4.1
				l0.1-0.5c0.2,0,0.5-0.1,0.7-0.1c0.2,0,0.4-0.1,0.6-0.2c0.2-0.1,0.4-0.3,0.5-0.6c0.1-0.3,0.3-0.8,0.4-1.4l1.2-5.3
				c0-0.1,0-0.2,0.1-0.3s0-0.2,0-0.3c0-0.2,0-0.3-0.1-0.4c0-0.1-0.1-0.2-0.2-0.3c-0.1-0.1-0.3-0.2-0.5-0.3c-0.2-0.1-0.4-0.1-0.6-0.1
				l0.1-0.5h3.5l1.1,7.7l4-6.4c0.1-0.2,0.3-0.5,0.4-0.8c0.1-0.3,0.2-0.4,0.2-0.5H266.2z"/>
			<path class="st5" d="M271.6,147.8L271.6,147.8c-0.2,0.1-0.3,0.2-0.4,0.3s-0.3,0.3-0.5,0.4c-0.2,0.1-0.4,0.2-0.6,0.3
				s-0.5,0.1-0.7,0.1c-0.7,0-1.2-0.2-1.6-0.8s-0.6-1.2-0.6-2c0-0.6,0.1-1.2,0.3-1.7c0.2-0.6,0.5-1.1,0.9-1.5c0.4-0.4,0.8-0.8,1.3-1
				c0.5-0.3,1-0.4,1.6-0.4c0.3,0,0.7,0,1,0.1s0.6,0.2,0.7,0.3l1.3-0.3l0.1,0.1l-1.1,4.7c0,0.1-0.1,0.3-0.1,0.5
				c0,0.2-0.1,0.4-0.1,0.5c0,0.3,0.1,0.5,0.2,0.6c0.1,0.1,0.3,0.1,0.6,0.1c0.1,0,0.2,0,0.4,0c0.2,0,0.3-0.1,0.4-0.1l-0.1,0.5
				c-0.4,0.2-0.8,0.3-1,0.4c-0.2,0.1-0.5,0.1-0.8,0.1c-0.3,0-0.6-0.1-0.8-0.3C271.7,148.4,271.6,148.1,271.6,147.8z M272.6,143.3
				c0-0.2,0-0.3-0.1-0.5c0-0.1-0.1-0.3-0.2-0.4c-0.1-0.1-0.2-0.2-0.4-0.3s-0.4-0.1-0.6-0.1c-0.4,0-0.7,0.1-1,0.3
				c-0.3,0.2-0.6,0.5-0.9,0.9c-0.2,0.4-0.5,0.8-0.6,1.3c-0.2,0.5-0.2,1-0.2,1.6c0,0.3,0,0.6,0.1,0.8c0,0.2,0.1,0.4,0.2,0.6
				c0.1,0.2,0.2,0.3,0.4,0.4c0.2,0.1,0.4,0.2,0.7,0.2c0.3,0,0.5-0.1,0.8-0.2s0.6-0.4,1-0.8L272.6,143.3z"/>
			<path class="st5" d="M279.4,149c-0.8,0-1.5-0.2-2-0.7c-0.5-0.5-0.7-1.2-0.7-2.1c0-0.6,0.1-1.2,0.3-1.7c0.2-0.6,0.4-1,0.8-1.5
				c0.3-0.4,0.8-0.8,1.3-1s1.1-0.4,1.7-0.4c0.7,0,1.2,0.1,1.6,0.4c0.4,0.3,0.5,0.7,0.5,1.1c0,0.3-0.1,0.6-0.2,0.9s-0.4,0.4-0.7,0.4
				c-0.3,0-0.5-0.1-0.6-0.2c-0.1-0.1-0.2-0.3-0.2-0.4c0-0.2,0.1-0.4,0.2-0.6c0.1-0.3,0.2-0.5,0.2-0.6c-0.1-0.1-0.2-0.2-0.4-0.3
				c-0.2-0.1-0.4-0.1-0.6-0.1c-0.7,0-1.2,0.4-1.7,1.1c-0.5,0.8-0.7,1.7-0.7,2.8c0,0.7,0.2,1.2,0.5,1.6c0.3,0.4,0.7,0.6,1.2,0.6
				c0.5,0,0.9-0.1,1.2-0.4s0.7-0.6,1-1.1l0.4,0.3c-0.3,0.5-0.8,1-1.4,1.4C280.6,148.8,280,149,279.4,149z"/>
			<path class="st5" d="M291.9,147.9l-0.1,0.5c-0.4,0.2-0.8,0.3-1,0.4s-0.5,0.1-0.7,0.1c-0.4,0-0.7-0.1-0.9-0.3s-0.3-0.4-0.3-0.7
				c0-0.1,0-0.2,0-0.3c0-0.1,0.1-0.3,0.1-0.5l0.7-2.7c0.1-0.2,0.1-0.4,0.1-0.6c0-0.2,0-0.3,0-0.4c0-0.3-0.1-0.6-0.2-0.8
				s-0.4-0.3-0.7-0.3c-0.3,0-0.6,0.1-1,0.3c-0.4,0.2-0.7,0.5-1,0.8l-1.2,5.3h-1.3l2.1-9.3c0-0.1,0-0.2,0.1-0.3s0-0.2,0-0.2
				c0-0.2,0-0.3-0.1-0.4s-0.1-0.2-0.2-0.2c-0.1,0-0.2-0.1-0.4-0.1c-0.2,0-0.3,0-0.5-0.1l0.1-0.4l2.7-0.2l0.1,0.1l-1.2,5h0
				c0.5-0.4,0.9-0.7,1.3-0.9c0.4-0.2,0.8-0.3,1.3-0.3c0.5,0,0.8,0.1,1.1,0.4c0.3,0.3,0.4,0.6,0.4,1c0,0.1,0,0.2,0,0.5
				c0,0.2-0.1,0.4-0.1,0.7l-0.6,2.3c0,0.2-0.1,0.3-0.1,0.5c0,0.2-0.1,0.4-0.1,0.5c0,0.3,0.1,0.5,0.2,0.6s0.3,0.1,0.6,0.1
				c0.1,0,0.2,0,0.4,0C291.7,148,291.8,148,291.9,147.9z"/>
			<path class="st5" d="M297.5,148l-0.1,0.5c-0.4,0.2-0.8,0.3-1.1,0.4c-0.3,0.1-0.5,0.1-0.7,0.1c-0.4,0-0.7-0.1-0.9-0.3
				c-0.2-0.2-0.3-0.4-0.3-0.7c0-0.1,0-0.2,0-0.3c0-0.1,0.1-0.3,0.1-0.5l0.8-3.1c0-0.2,0.1-0.3,0.1-0.5s0.1-0.4,0.1-0.5
				c0-0.3,0-0.4-0.1-0.5s-0.3-0.1-0.5-0.1c-0.1,0-0.2,0-0.4,0c-0.2,0-0.3,0.1-0.4,0.1l0.1-0.5c0.4-0.2,0.7-0.3,1-0.4
				c0.3-0.1,0.5-0.1,0.7-0.1c0.4,0,0.7,0.1,0.9,0.3s0.3,0.4,0.3,0.8c0,0.1,0,0.2,0,0.4c0,0.1,0,0.3-0.1,0.4l-0.8,3.1
				c0,0.2-0.1,0.4-0.1,0.6c0,0.2-0.1,0.3-0.1,0.4c0,0.3,0.1,0.5,0.2,0.6c0.1,0.1,0.3,0.2,0.6,0.2c0.1,0,0.2,0,0.4,0
				C297.3,148.1,297.4,148,297.5,148z M298,138.8c0,0.3-0.1,0.5-0.3,0.7s-0.4,0.3-0.7,0.3c-0.2,0-0.5-0.1-0.6-0.3s-0.3-0.4-0.3-0.7
				c0-0.3,0.1-0.5,0.3-0.7s0.4-0.3,0.6-0.3c0.3,0,0.5,0.1,0.7,0.3C297.9,138.3,298,138.5,298,138.8z"/>
			<path class="st5" d="M307.4,147.9l-0.1,0.5c-0.4,0.2-0.8,0.3-1,0.4s-0.5,0.1-0.7,0.1c-0.4,0-0.7-0.1-0.9-0.3s-0.3-0.4-0.3-0.7
				c0-0.1,0-0.2,0-0.3c0-0.1,0-0.3,0.1-0.5l0.7-2.7c0.1-0.2,0.1-0.4,0.1-0.6c0-0.2,0-0.3,0-0.4c0-0.3-0.1-0.6-0.2-0.8
				s-0.4-0.3-0.7-0.3c-0.3,0-0.6,0.1-1,0.3c-0.4,0.2-0.7,0.5-1,0.8l-1.2,5.3h-1.3l1.1-4.7c0-0.1,0.1-0.3,0.1-0.5s0.1-0.4,0.1-0.5
				c0-0.3,0-0.5-0.1-0.5c-0.1-0.1-0.3-0.1-0.5-0.1c-0.1,0-0.2,0-0.4,0.1s-0.3,0.1-0.4,0.1l0.1-0.5c0.4-0.2,0.7-0.3,1-0.4
				c0.3-0.1,0.5-0.1,0.7-0.1c0.4,0,0.7,0.1,0.8,0.3c0.2,0.2,0.3,0.5,0.3,0.9h0c0.5-0.4,1-0.7,1.4-0.9c0.4-0.2,0.8-0.3,1.3-0.3
				c0.5,0,0.8,0.1,1.1,0.4c0.3,0.3,0.4,0.6,0.4,1c0,0.1,0,0.2,0,0.5c0,0.2-0.1,0.4-0.1,0.7l-0.6,2.3c0,0.2-0.1,0.3-0.1,0.5
				c0,0.2-0.1,0.4-0.1,0.5c0,0.3,0.1,0.5,0.2,0.6s0.3,0.1,0.6,0.1c0.1,0,0.2,0,0.4,0C307.2,148,307.3,148,307.4,147.9z"/>
			<path class="st5" d="M315.7,143c0,0.5-0.2,0.9-0.5,1.3c-0.3,0.4-0.8,0.7-1.4,0.9c-0.4,0.2-0.9,0.3-1.4,0.4
				c-0.5,0.1-1,0.2-1.5,0.3c0,0.8,0.1,1.3,0.4,1.7c0.3,0.4,0.7,0.6,1.2,0.6c0.5,0,0.9-0.1,1.3-0.4s0.7-0.6,1.1-1.1l0.4,0.3
				c-0.4,0.6-0.9,1.1-1.4,1.4c-0.6,0.4-1.2,0.5-1.8,0.5c-0.8,0-1.5-0.2-1.9-0.7c-0.4-0.5-0.7-1.2-0.7-2c0-0.6,0.1-1.2,0.3-1.7
				c0.2-0.5,0.5-1.1,0.8-1.5c0.4-0.4,0.8-0.8,1.3-1.1c0.5-0.3,1.1-0.4,1.7-0.4c0.7,0,1.2,0.1,1.5,0.4S315.7,142.6,315.7,143z
				 M314.3,142.8c0-0.2,0-0.3-0.1-0.4c-0.1-0.1-0.1-0.2-0.2-0.2c-0.1-0.1-0.2-0.1-0.3-0.1c-0.1,0-0.2,0-0.3,0
				c-0.6,0-1.1,0.3-1.6,0.9c-0.5,0.6-0.8,1.4-0.9,2.4c0.3,0,0.7-0.1,1.1-0.2c0.4-0.1,0.8-0.2,1.1-0.3c0.4-0.2,0.7-0.5,0.9-0.8
				C314.2,143.7,314.3,143.3,314.3,142.8z"/>
			<path class="st5" d="M319.7,149c-0.7,0-1.3-0.1-1.8-0.4s-0.7-0.6-0.7-1c0-0.2,0.1-0.4,0.2-0.5c0.1-0.2,0.3-0.3,0.5-0.3
				c0.2,0,0.3,0,0.5,0.1c0.1,0.1,0.2,0.2,0.3,0.3c0.1,0.1,0.1,0.3,0.2,0.4c0.1,0.2,0.1,0.3,0.1,0.4c0.1,0.1,0.2,0.2,0.3,0.2
				c0.1,0.1,0.3,0.1,0.6,0.1c0.5,0,0.9-0.1,1.2-0.4s0.4-0.6,0.4-1.1c0-0.3-0.1-0.6-0.4-0.8c-0.2-0.2-0.6-0.4-1.1-0.5
				c-0.2-0.1-0.4-0.1-0.6-0.3s-0.4-0.2-0.6-0.4c-0.2-0.2-0.3-0.3-0.4-0.5c-0.1-0.2-0.2-0.5-0.2-0.8c0-0.6,0.3-1.1,0.8-1.6
				s1.2-0.7,2-0.7c0.2,0,0.4,0,0.6,0c0.2,0,0.5,0.1,0.7,0.2c0.2,0.1,0.4,0.2,0.6,0.3s0.2,0.3,0.2,0.6c0,0.2-0.1,0.4-0.2,0.5
				c-0.1,0.2-0.3,0.2-0.5,0.2c-0.2,0-0.3,0-0.4-0.1s-0.2-0.2-0.3-0.3c-0.1-0.1-0.1-0.3-0.2-0.4c0-0.1-0.1-0.3-0.2-0.4
				c-0.1,0-0.2-0.1-0.2-0.1c-0.1,0-0.2,0-0.3,0c-0.5,0-0.8,0.1-1.1,0.4s-0.4,0.6-0.4,0.9c0,0.3,0.1,0.6,0.3,0.8s0.6,0.3,1.1,0.5
				c0.7,0.2,1.1,0.5,1.4,0.8c0.3,0.3,0.4,0.7,0.4,1.1c0,0.7-0.3,1.3-0.8,1.8C321.3,148.8,320.6,149,319.7,149z"/>
			<path class="st5" d="M327.6,148.1c0,0.4-0.1,0.8-0.3,1.1c-0.2,0.4-0.4,0.7-0.7,1c-0.3,0.3-0.6,0.5-0.9,0.7s-0.6,0.3-0.8,0.5
				l-0.2-0.5c0.2-0.1,0.4-0.3,0.7-0.4c0.2-0.2,0.4-0.3,0.6-0.5c0.2-0.2,0.4-0.4,0.5-0.6c0.1-0.2,0.2-0.4,0.3-0.7h-0.3
				c-0.3,0-0.5-0.1-0.7-0.2s-0.2-0.3-0.2-0.6c0-0.2,0.1-0.5,0.3-0.7c0.2-0.2,0.5-0.3,0.8-0.3c0.4,0,0.6,0.1,0.8,0.3
				C327.6,147.5,327.6,147.7,327.6,148.1z"/>
			<path class="st5" d="M339.3,149c-1,0-1.8-0.2-2.4-0.6c-0.6-0.4-0.9-1-0.9-1.7c0-0.1,0-0.2,0-0.3c0-0.1,0-0.2,0.1-0.3l1.4-6.1
				c0,0,0-0.1,0-0.1c0,0,0-0.1,0-0.1c0-0.1,0-0.2-0.1-0.3s-0.1-0.2-0.2-0.2c-0.1-0.1-0.2-0.1-0.4-0.2c-0.2,0-0.3-0.1-0.4-0.1
				l0.1-0.5h4.2l-0.1,0.5c-0.1,0-0.3,0-0.5,0.1c-0.2,0-0.4,0.1-0.5,0.1c-0.2,0.1-0.3,0.2-0.4,0.3c-0.1,0.1-0.1,0.3-0.2,0.4l-1.3,5.7
				c0,0.1-0.1,0.3-0.1,0.4c0,0.2,0,0.3,0,0.4c0,0.2,0,0.5,0.1,0.7c0.1,0.2,0.2,0.4,0.3,0.6c0.1,0.2,0.4,0.3,0.6,0.4
				c0.3,0.1,0.6,0.2,1,0.2c0.5,0,1-0.1,1.4-0.3c0.4-0.2,0.7-0.4,1-0.6c0.2-0.2,0.4-0.5,0.6-0.8s0.3-0.6,0.3-0.9
				c0.2-0.7,0.3-1.4,0.5-2c0.1-0.7,0.3-1.4,0.5-2.2c0.1-0.4,0.1-0.7,0.2-0.9c0-0.2,0-0.4,0-0.6c0-0.1,0-0.3,0-0.3s-0.1-0.2-0.2-0.2
				c-0.1-0.1-0.3-0.2-0.6-0.3c-0.3-0.1-0.5-0.1-0.6-0.1l0.1-0.5h4.2L347,139c-0.1,0-0.3,0-0.6,0.1c-0.3,0.1-0.5,0.1-0.7,0.2
				c-0.2,0.1-0.4,0.4-0.5,0.8c-0.2,0.4-0.3,0.8-0.4,1.2c-0.1,0.7-0.3,1.4-0.5,2.1c-0.2,0.7-0.3,1.5-0.5,2.3
				c-0.2,0.7-0.4,1.2-0.8,1.7c-0.3,0.4-0.7,0.8-1.1,1c-0.4,0.2-0.8,0.4-1.3,0.5C340.2,149,339.7,149,339.3,149z"/>
			<path class="st5" d="M355.2,147.9l-0.1,0.5c-0.4,0.2-0.8,0.3-1,0.4s-0.5,0.1-0.7,0.1c-0.4,0-0.7-0.1-0.9-0.3s-0.3-0.4-0.3-0.7
				c0-0.1,0-0.2,0-0.3c0-0.1,0-0.3,0.1-0.5l0.7-2.7c0.1-0.2,0.1-0.4,0.1-0.6c0-0.2,0-0.3,0-0.4c0-0.3-0.1-0.6-0.2-0.8
				s-0.4-0.3-0.7-0.3c-0.3,0-0.6,0.1-1,0.3c-0.4,0.2-0.7,0.5-1,0.8l-1.2,5.3h-1.3l1.1-4.7c0-0.1,0.1-0.3,0.1-0.5s0.1-0.4,0.1-0.5
				c0-0.3,0-0.5-0.1-0.5c-0.1-0.1-0.3-0.1-0.5-0.1c-0.1,0-0.2,0-0.4,0.1s-0.3,0.1-0.4,0.1l0.1-0.5c0.4-0.2,0.7-0.3,1-0.4
				c0.3-0.1,0.5-0.1,0.7-0.1c0.4,0,0.7,0.1,0.8,0.3c0.2,0.2,0.3,0.5,0.3,0.9h0c0.5-0.4,1-0.7,1.4-0.9c0.4-0.2,0.8-0.3,1.3-0.3
				c0.5,0,0.8,0.1,1.1,0.4c0.3,0.3,0.4,0.6,0.4,1c0,0.1,0,0.2,0,0.5c0,0.2-0.1,0.4-0.1,0.7l-0.6,2.3c0,0.2-0.1,0.3-0.1,0.5
				c0,0.2-0.1,0.4-0.1,0.5c0,0.3,0.1,0.5,0.2,0.6s0.3,0.1,0.6,0.1c0.1,0,0.2,0,0.4,0C355,148,355.1,148,355.2,147.9z"/>
			<path class="st5" d="M361.9,147.8L361.9,147.8c-0.3,0.2-0.5,0.3-0.7,0.5c-0.2,0.1-0.4,0.3-0.6,0.4c-0.2,0.1-0.4,0.2-0.6,0.2
				s-0.4,0.1-0.7,0.1c-0.5,0-0.8-0.1-1.1-0.4c-0.3-0.3-0.4-0.6-0.4-1c0-0.1,0-0.3,0-0.4s0.1-0.4,0.1-0.7l0.6-2.3
				c0-0.2,0.1-0.4,0.1-0.6s0-0.3,0-0.5c0-0.3,0-0.4-0.1-0.5s-0.3-0.1-0.5-0.1c-0.1,0-0.2,0-0.4,0.1s-0.3,0.1-0.4,0.1l0.1-0.5
				c0.4-0.2,0.7-0.3,1-0.4c0.3-0.1,0.5-0.1,0.7-0.1c0.4,0,0.7,0.1,0.8,0.3c0.2,0.2,0.3,0.4,0.3,0.8c0,0.1,0,0.2,0,0.4
				c0,0.1,0,0.3-0.1,0.4l-0.6,2.7c0,0.2-0.1,0.4-0.1,0.6c0,0.2,0,0.3,0,0.4c0,0.3,0.1,0.6,0.2,0.8c0.1,0.2,0.4,0.3,0.7,0.3
				c0.3,0,0.6-0.1,0.9-0.2c0.3-0.2,0.6-0.4,1-0.7l1.3-5.4l1.3-0.1l0.1,0.1l-1.1,4.6c0,0.2-0.1,0.4-0.1,0.6s-0.1,0.3-0.1,0.4
				c0,0.3,0.1,0.5,0.2,0.6c0.1,0.1,0.3,0.1,0.6,0.1c0.1,0,0.2,0,0.4,0c0.2,0,0.3-0.1,0.4-0.1l-0.1,0.5c-0.4,0.2-0.7,0.3-1,0.4
				s-0.5,0.1-0.7,0.1c-0.4,0-0.7-0.1-0.9-0.3S361.9,148.1,361.9,147.8z"/>
			<path class="st5" d="M369.1,149c-0.7,0-1.3-0.1-1.8-0.4s-0.7-0.6-0.7-1c0-0.2,0.1-0.4,0.2-0.5c0.1-0.2,0.3-0.3,0.5-0.3
				c0.2,0,0.3,0,0.5,0.1c0.1,0.1,0.2,0.2,0.3,0.3c0.1,0.1,0.1,0.3,0.2,0.4c0.1,0.2,0.1,0.3,0.1,0.4c0.1,0.1,0.2,0.2,0.3,0.2
				c0.1,0.1,0.3,0.1,0.6,0.1c0.5,0,0.9-0.1,1.2-0.4s0.4-0.6,0.4-1.1c0-0.3-0.1-0.6-0.4-0.8c-0.2-0.2-0.6-0.4-1.1-0.5
				c-0.2-0.1-0.4-0.1-0.6-0.3s-0.4-0.2-0.6-0.4c-0.2-0.2-0.3-0.3-0.4-0.5c-0.1-0.2-0.2-0.5-0.2-0.8c0-0.6,0.3-1.1,0.8-1.6
				s1.2-0.7,2-0.7c0.2,0,0.4,0,0.6,0c0.2,0,0.5,0.1,0.7,0.2c0.2,0.1,0.4,0.2,0.6,0.3s0.2,0.3,0.2,0.6c0,0.2-0.1,0.4-0.2,0.5
				c-0.1,0.2-0.3,0.2-0.5,0.2c-0.2,0-0.3,0-0.4-0.1s-0.2-0.2-0.3-0.3c-0.1-0.1-0.1-0.3-0.2-0.4c0-0.1-0.1-0.3-0.2-0.4
				c-0.1,0-0.2-0.1-0.2-0.1c-0.1,0-0.2,0-0.3,0c-0.5,0-0.8,0.1-1.1,0.4s-0.4,0.6-0.4,0.9c0,0.3,0.1,0.6,0.3,0.8s0.6,0.3,1.1,0.5
				c0.7,0.2,1.1,0.5,1.4,0.8c0.3,0.3,0.4,0.7,0.4,1.1c0,0.7-0.3,1.3-0.8,1.8C370.6,148.8,369.9,149,369.1,149z"/>
			<path class="st5" d="M380.7,143c0,0.5-0.2,0.9-0.5,1.3c-0.3,0.4-0.8,0.7-1.4,0.9c-0.4,0.2-0.9,0.3-1.4,0.4
				c-0.5,0.1-1,0.2-1.5,0.3c0,0.8,0.1,1.3,0.4,1.7c0.3,0.4,0.7,0.6,1.2,0.6c0.5,0,0.9-0.1,1.3-0.4s0.7-0.6,1.1-1.1l0.4,0.3
				c-0.4,0.6-0.9,1.1-1.4,1.4c-0.6,0.4-1.2,0.5-1.8,0.5c-0.8,0-1.5-0.2-1.9-0.7c-0.4-0.5-0.7-1.2-0.7-2c0-0.6,0.1-1.2,0.3-1.7
				c0.2-0.5,0.5-1.1,0.8-1.5c0.4-0.4,0.8-0.8,1.3-1.1c0.5-0.3,1.1-0.4,1.7-0.4c0.7,0,1.2,0.1,1.5,0.4S380.7,142.6,380.7,143z
				 M379.3,142.8c0-0.2,0-0.3-0.1-0.4c-0.1-0.1-0.1-0.2-0.2-0.2c-0.1-0.1-0.2-0.1-0.3-0.1c-0.1,0-0.2,0-0.3,0
				c-0.6,0-1.1,0.3-1.6,0.9c-0.5,0.6-0.8,1.4-0.9,2.4c0.3,0,0.7-0.1,1.1-0.2c0.4-0.1,0.8-0.2,1.1-0.3c0.4-0.2,0.7-0.5,0.9-0.8
				C379.2,143.7,379.3,143.3,379.3,142.8z"/>
			<path class="st5" d="M387.2,147.8L387.2,147.8c-0.2,0.1-0.3,0.2-0.5,0.4s-0.3,0.3-0.5,0.4c-0.2,0.1-0.4,0.3-0.6,0.3
				c-0.2,0.1-0.4,0.1-0.7,0.1c-0.7,0-1.2-0.3-1.6-0.8c-0.4-0.5-0.6-1.2-0.6-2.1c0-0.6,0.1-1.2,0.3-1.8c0.2-0.6,0.5-1.1,0.9-1.5
				c0.4-0.4,0.8-0.8,1.3-1c0.5-0.3,1-0.4,1.6-0.4c0.3,0,0.7,0,1,0.1c0.3,0.1,0.6,0.2,0.8,0.3l0.6-2.5c0-0.1,0-0.2,0.1-0.3
				c0-0.1,0-0.2,0-0.2c0-0.2,0-0.3-0.1-0.4c-0.1-0.1-0.2-0.2-0.3-0.2c-0.1,0-0.3-0.1-0.5-0.1c-0.2,0-0.4,0-0.5-0.1l0.1-0.4l2.9-0.2
				l0.1,0.1l-2,8.6c0,0.2-0.1,0.3-0.1,0.5c0,0.2-0.1,0.4-0.1,0.5c0,0.3,0.1,0.5,0.2,0.6c0.1,0.1,0.3,0.1,0.6,0.1c0.1,0,0.2,0,0.4,0
				c0.2,0,0.3-0.1,0.4-0.1l-0.1,0.5c-0.4,0.2-0.7,0.3-1,0.4s-0.5,0.1-0.7,0.1c-0.3,0-0.6-0.1-0.8-0.3
				C387.3,148.5,387.2,148.2,387.2,147.8z M388.2,143.2c0-0.1,0-0.3-0.1-0.4c-0.1-0.1-0.1-0.3-0.2-0.4c-0.1-0.1-0.3-0.2-0.4-0.3
				c-0.2-0.1-0.4-0.1-0.6-0.1c-0.4,0-0.7,0.1-1,0.3c-0.3,0.2-0.6,0.5-0.9,0.9c-0.2,0.4-0.4,0.8-0.6,1.3c-0.1,0.5-0.2,1-0.2,1.6
				c0,0.3,0,0.6,0.1,0.8c0,0.2,0.1,0.4,0.2,0.6c0.1,0.2,0.2,0.3,0.4,0.4c0.2,0.1,0.4,0.2,0.7,0.2c0.3,0,0.6-0.1,0.9-0.2
				c0.3-0.2,0.7-0.4,1-0.8L388.2,143.2z"/>
			<path class="st5" d="M406,140.6c0,0.6-0.1,1.1-0.4,1.6c-0.3,0.5-0.6,0.8-1,1.1c-0.4,0.3-0.9,0.6-1.4,0.7
				c-0.5,0.2-1.1,0.2-1.6,0.2h-1.2l-0.7,3.2c0,0,0,0.1,0,0.1s0,0.1,0,0.1c0,0.1,0,0.2,0.1,0.3c0,0.1,0.1,0.1,0.2,0.2
				c0.1,0,0.2,0.1,0.4,0.1c0.2,0,0.4,0,0.6,0.1l-0.1,0.5h-4.4l0.1-0.5c0.1,0,0.3,0,0.5-0.1c0.2,0,0.4-0.1,0.5-0.1
				c0.2-0.1,0.3-0.2,0.4-0.3c0.1-0.1,0.2-0.3,0.2-0.4l1.7-7.4c0,0,0-0.1,0-0.1c0-0.1,0-0.1,0-0.2c0-0.1,0-0.2-0.1-0.3
				c0-0.1-0.1-0.1-0.2-0.2c-0.2-0.1-0.3-0.1-0.5-0.1c-0.2,0-0.3,0-0.5-0.1l0.1-0.5h4.5c0.8,0,1.5,0.2,2,0.6
				C405.7,139.5,406,140,406,140.6z M403.7,142.6c0.2-0.3,0.3-0.6,0.4-0.9c0.1-0.3,0.1-0.6,0.1-0.9c0-0.2,0-0.4-0.1-0.6
				c-0.1-0.2-0.2-0.4-0.3-0.5c-0.1-0.2-0.3-0.3-0.6-0.4c-0.2-0.1-0.5-0.1-0.9-0.1h-0.9l-1,4.6h0.8c0.6,0,1-0.1,1.4-0.3
				C403.1,143.2,403.4,142.9,403.7,142.6z"/>
			<path class="st5" d="M414.2,144.3c0,0.6-0.1,1.1-0.3,1.7s-0.5,1.1-0.8,1.5c-0.4,0.4-0.8,0.8-1.3,1.1c-0.5,0.3-1.1,0.4-1.8,0.4
				c-0.8,0-1.4-0.3-1.9-0.8s-0.7-1.2-0.7-2.1c0-0.6,0.1-1.2,0.3-1.8c0.2-0.6,0.5-1,0.8-1.5c0.4-0.4,0.8-0.8,1.3-1
				c0.5-0.3,1.1-0.4,1.7-0.4c0.9,0,1.5,0.3,2,0.8C413.9,142.8,414.2,143.5,414.2,144.3z M412.7,144.1c0-0.7-0.1-1.2-0.4-1.5
				c-0.2-0.3-0.6-0.5-1-0.5c-0.4,0-0.8,0.1-1.1,0.4c-0.4,0.2-0.7,0.6-0.9,1.2c-0.2,0.4-0.3,0.9-0.4,1.4c-0.1,0.5-0.1,1-0.1,1.4
				c0,0.7,0.1,1.2,0.4,1.6c0.2,0.4,0.6,0.5,1.1,0.5c0.4,0,0.8-0.1,1.1-0.4s0.6-0.6,0.8-1c0.2-0.4,0.4-0.9,0.5-1.4
				C412.6,145.2,412.7,144.6,412.7,144.1z"/>
			<path class="st5" d="M418,148.9c-0.5,0-0.8-0.1-1-0.3c-0.2-0.2-0.3-0.5-0.3-0.8c0-0.1,0-0.2,0-0.3c0-0.1,0-0.2,0.1-0.3l1.1-4.8
				h-1.3l0.2-0.7h1.3l0.5-2.1h1.3l-0.5,2.1h2l-0.2,0.7h-2l-0.9,4c0,0.2-0.1,0.4-0.1,0.5c0,0.2,0,0.3,0,0.4c0,0.3,0.1,0.5,0.2,0.6
				s0.4,0.2,0.7,0.2c0.1,0,0.3,0,0.5,0s0.4-0.1,0.5-0.1l-0.1,0.5c-0.3,0.1-0.7,0.2-1,0.3C418.8,148.9,418.4,148.9,418,148.9z"/>
			<path class="st5" d="M428.8,143c0,0.5-0.2,0.9-0.5,1.3c-0.3,0.4-0.8,0.7-1.4,0.9c-0.4,0.2-0.9,0.3-1.4,0.4
				c-0.5,0.1-1,0.2-1.5,0.3c0,0.8,0.1,1.3,0.4,1.7c0.3,0.4,0.7,0.6,1.2,0.6c0.5,0,0.9-0.1,1.3-0.4s0.7-0.6,1.1-1.1l0.4,0.3
				c-0.4,0.6-0.9,1.1-1.4,1.4c-0.6,0.4-1.2,0.5-1.8,0.5c-0.8,0-1.5-0.2-1.9-0.7c-0.4-0.5-0.7-1.2-0.7-2c0-0.6,0.1-1.2,0.3-1.7
				c0.2-0.5,0.5-1.1,0.8-1.5c0.4-0.4,0.8-0.8,1.3-1.1c0.5-0.3,1.1-0.4,1.7-0.4c0.7,0,1.2,0.1,1.5,0.4S428.8,142.6,428.8,143z
				 M427.5,142.8c0-0.2,0-0.3-0.1-0.4c-0.1-0.1-0.1-0.2-0.2-0.2c-0.1-0.1-0.2-0.1-0.3-0.1c-0.1,0-0.2,0-0.3,0
				c-0.6,0-1.1,0.3-1.6,0.9c-0.5,0.6-0.8,1.4-0.9,2.4c0.3,0,0.7-0.1,1.1-0.2c0.4-0.1,0.8-0.2,1.1-0.3c0.4-0.2,0.7-0.5,0.9-0.8
				C427.4,143.7,427.5,143.3,427.5,142.8z"/>
			<path class="st5" d="M438.5,147.9l-0.1,0.5c-0.4,0.2-0.8,0.3-1,0.4s-0.5,0.1-0.7,0.1c-0.4,0-0.7-0.1-0.9-0.3s-0.3-0.4-0.3-0.7
				c0-0.1,0-0.2,0-0.3c0-0.1,0-0.3,0.1-0.5l0.7-2.7c0.1-0.2,0.1-0.4,0.1-0.6c0-0.2,0-0.3,0-0.4c0-0.3-0.1-0.6-0.2-0.8
				s-0.4-0.3-0.7-0.3c-0.3,0-0.6,0.1-1,0.3c-0.4,0.2-0.7,0.5-1,0.8l-1.2,5.3h-1.3l1.1-4.7c0-0.1,0.1-0.3,0.1-0.5s0.1-0.4,0.1-0.5
				c0-0.3,0-0.5-0.1-0.5c-0.1-0.1-0.3-0.1-0.5-0.1c-0.1,0-0.2,0-0.4,0.1s-0.3,0.1-0.4,0.1l0.1-0.5c0.4-0.2,0.7-0.3,1-0.4
				c0.3-0.1,0.5-0.1,0.7-0.1c0.4,0,0.7,0.1,0.8,0.3c0.2,0.2,0.3,0.5,0.3,0.9h0c0.5-0.4,1-0.7,1.4-0.9c0.4-0.2,0.8-0.3,1.3-0.3
				c0.5,0,0.8,0.1,1.1,0.4c0.3,0.3,0.4,0.6,0.4,1c0,0.1,0,0.2,0,0.5c0,0.2-0.1,0.4-0.1,0.7l-0.6,2.3c0,0.2-0.1,0.3-0.1,0.5
				c0,0.2-0.1,0.4-0.1,0.5c0,0.3,0.1,0.5,0.2,0.6s0.3,0.1,0.6,0.1c0.1,0,0.2,0,0.4,0C438.3,148,438.5,148,438.5,147.9z"/>
			<path class="st5" d="M442.3,148.9c-0.5,0-0.8-0.1-1-0.3c-0.2-0.2-0.3-0.5-0.3-0.8c0-0.1,0-0.2,0-0.3c0-0.1,0-0.2,0.1-0.3l1.1-4.8
				h-1.3l0.2-0.7h1.3l0.5-2.1h1.3l-0.5,2.1h2l-0.2,0.7h-2l-0.9,4c0,0.2-0.1,0.4-0.1,0.5c0,0.2,0,0.3,0,0.4c0,0.3,0.1,0.5,0.2,0.6
				s0.4,0.2,0.7,0.2c0.1,0,0.3,0,0.5,0s0.4-0.1,0.5-0.1l-0.1,0.5c-0.3,0.1-0.7,0.2-1,0.3C443.1,148.9,442.7,148.9,442.3,148.9z"/>
			<path class="st5" d="M450.4,148l-0.1,0.5c-0.4,0.2-0.8,0.3-1.1,0.4c-0.3,0.1-0.5,0.1-0.7,0.1c-0.4,0-0.7-0.1-0.9-0.3
				c-0.2-0.2-0.3-0.4-0.3-0.7c0-0.1,0-0.2,0-0.3c0-0.1,0.1-0.3,0.1-0.5l0.8-3.1c0-0.2,0.1-0.3,0.1-0.5s0.1-0.4,0.1-0.5
				c0-0.3,0-0.4-0.1-0.5s-0.3-0.1-0.5-0.1c-0.1,0-0.2,0-0.4,0c-0.2,0-0.3,0.1-0.4,0.1l0.1-0.5c0.4-0.2,0.7-0.3,1-0.4
				c0.3-0.1,0.5-0.1,0.7-0.1c0.4,0,0.7,0.1,0.9,0.3s0.3,0.4,0.3,0.8c0,0.1,0,0.2,0,0.4c0,0.1,0,0.3-0.1,0.4l-0.8,3.1
				c0,0.2-0.1,0.4-0.1,0.6c0,0.2-0.1,0.3-0.1,0.4c0,0.3,0.1,0.5,0.2,0.6c0.1,0.1,0.3,0.2,0.6,0.2c0.1,0,0.2,0,0.4,0
				C450.2,148.1,450.3,148,450.4,148z M450.9,138.8c0,0.3-0.1,0.5-0.3,0.7s-0.4,0.3-0.7,0.3c-0.2,0-0.5-0.1-0.6-0.3
				s-0.3-0.4-0.3-0.7c0-0.3,0.1-0.5,0.3-0.7s0.4-0.3,0.6-0.3c0.3,0,0.5,0.1,0.7,0.3C450.8,138.3,450.9,138.5,450.9,138.8z"/>
			<path class="st5" d="M457,147.8L457,147.8c-0.2,0.1-0.3,0.2-0.4,0.3s-0.3,0.3-0.5,0.4c-0.2,0.1-0.4,0.2-0.6,0.3s-0.5,0.1-0.7,0.1
				c-0.7,0-1.2-0.2-1.6-0.8s-0.6-1.2-0.6-2c0-0.6,0.1-1.2,0.3-1.7c0.2-0.6,0.5-1.1,0.9-1.5c0.4-0.4,0.8-0.8,1.3-1
				c0.5-0.3,1-0.4,1.6-0.4c0.3,0,0.7,0,1,0.1s0.6,0.2,0.7,0.3l1.3-0.3l0.1,0.1l-1.1,4.7c0,0.1-0.1,0.3-0.1,0.5
				c0,0.2-0.1,0.4-0.1,0.5c0,0.3,0.1,0.5,0.2,0.6c0.1,0.1,0.3,0.1,0.6,0.1c0.1,0,0.2,0,0.4,0c0.2,0,0.3-0.1,0.4-0.1l-0.1,0.5
				c-0.4,0.2-0.8,0.3-1,0.4c-0.2,0.1-0.5,0.1-0.8,0.1c-0.3,0-0.6-0.1-0.8-0.3C457.2,148.4,457,148.1,457,147.8z M458.1,143.3
				c0-0.2,0-0.3-0.1-0.5c0-0.1-0.1-0.3-0.2-0.4c-0.1-0.1-0.2-0.2-0.4-0.3s-0.4-0.1-0.6-0.1c-0.4,0-0.7,0.1-1,0.3
				c-0.3,0.2-0.6,0.5-0.9,0.9c-0.2,0.4-0.5,0.8-0.6,1.3c-0.2,0.5-0.2,1-0.2,1.6c0,0.3,0,0.6,0.1,0.8c0,0.2,0.1,0.4,0.2,0.6
				c0.1,0.2,0.2,0.3,0.4,0.4c0.2,0.1,0.4,0.2,0.7,0.2c0.3,0,0.5-0.1,0.8-0.2s0.6-0.4,1-0.8L458.1,143.3z"/>
			<path class="st5" d="M466,137.7l-2,8.7c0,0.2-0.1,0.4-0.1,0.5c0,0.2-0.1,0.3-0.1,0.4c0,0.3,0.1,0.5,0.2,0.6
				c0.1,0.1,0.3,0.2,0.6,0.2c0.1,0,0.2,0,0.4,0c0.2,0,0.3-0.1,0.4-0.1l-0.1,0.5c-0.4,0.2-0.8,0.3-1,0.4s-0.5,0.1-0.8,0.1
				c-0.4,0-0.7-0.1-0.9-0.3c-0.2-0.2-0.3-0.4-0.3-0.7c0-0.1,0-0.2,0-0.3s0.1-0.3,0.1-0.5l1.8-7.6c0-0.1,0.1-0.3,0.1-0.3
				c0-0.1,0-0.1,0-0.2c0-0.2,0-0.3-0.1-0.4s-0.1-0.2-0.2-0.2c-0.1,0-0.2-0.1-0.4-0.1c-0.2,0-0.3,0-0.5-0.1l0.1-0.4l2.7-0.2
				L466,137.7z"/>
			<path class="st5" d="M469.9,148c0,0.3-0.1,0.5-0.3,0.7s-0.4,0.3-0.7,0.3c-0.3,0-0.5-0.1-0.7-0.3c-0.2-0.2-0.3-0.4-0.3-0.7
				c0-0.3,0.1-0.5,0.3-0.7c0.2-0.2,0.4-0.3,0.7-0.3c0.3,0,0.5,0.1,0.7,0.3C469.8,147.5,469.9,147.7,469.9,148z"/>
		</g>
	</g>
</g>
</svg>
