<?xml version="1.0" encoding="utf-8"?>
<!-- Generator: Adobe Illustrator 27.3.1, SVG Export Plug-In . SVG Version: 6.00 Build 0)  -->
<svg version="1.1" id="Layer_1" xmlns="http://www.w3.org/2000/svg" xmlns:xlink="http://www.w3.org/1999/xlink" x="0px" y="0px"
	 viewBox="0 0 528 153.6" style="enable-background:new 0 0 528 153.6;" xml:space="preserve">
<style type="text/css">
	.st0{clip-path:url(#SVGID_00000155136932121840100170000010736776088073906367_);enable-background:new    ;}
	.st1{fill:#F07020;}
	.st2{fill:#FFFFFF;}
	.st3{enable-background:new    ;}
	.st4{fill:#1A1A1A;}
	.st5{opacity:0.35;fill:#F07020;enable-background:new    ;}
	.st6{fill:#999999;}
</style>
<g>
	<g>
		<defs>
			<circle id="SVGID_1_" cx="-327" cy="32.6" r="51.2"/>
		</defs>
		<clipPath id="SVGID_00000006687179173764241270000018382202061107975597_">
			<use xlink:href="#SVGID_1_"  style="overflow:visible;"/>
		</clipPath>
		<g style="clip-path:url(#SVGID_00000006687179173764241270000018382202061107975597_);enable-background:new    ;">
			<path class="st1" d="M-309.4,37.8l-1.1,1.6c-1.7,1.9-3.8,3.5-6.4,4.6c-2.6,1.2-5.5,1.8-8.8,1.9c0,2.5-0.5,4.8-1.5,6.9
				s-2.4,3.9-4.1,5.4c-1.7,1.5-3.8,2.7-6.2,3.6c-2.4,0.9-5,1.3-7.7,1.3c-9.3,0-17.4-4.7-24.3-14.2l8.9-6.3c1.3,1.9,2.6,3.4,3.9,4.7
				c1.3,1.3,2.6,2.3,3.8,3c1.2,0.7,2.5,1.3,3.8,1.6c1.3,0.3,2.6,0.5,3.9,0.5c1.2,0,2.4-0.2,3.4-0.5c1.1-0.3,2-0.8,2.8-1.3
				c0.8-0.6,1.4-1.3,1.8-2.2c0.5-0.9,0.7-1.8,0.7-2.9c0-1.2-0.2-2.2-0.5-3.2c-0.4-0.9-0.9-1.7-1.6-2.4s-1.6-1.1-2.5-1.5
				c-0.9-0.3-2-0.5-3.1-0.5c-1.5,0-3.9,0.7-6.9,2.1V28.8c2.2-1,4.4-1.6,6.8-1.6c0.5,0,1,0,1.4,0c0.5,0,1,0.1,1.6,0.2
				c0.9-1,1.4-2.4,1.4-4.3c0-0.9-0.2-1.8-0.5-2.5c-0.4-0.8-0.8-1.4-1.4-1.9c-0.6-0.5-1.3-1-2.1-1.2c-0.8-0.3-1.7-0.4-2.6-0.4
				c-3.8,0-7.1,1.9-9.7,5.6l-9.1-5.6c4.3-7.1,10.5-10.7,18.8-10.7c2.4,0,4.7,0.4,6.8,1.3c2.1,0.9,4,2.1,5.7,3.6
				c1.6,1.5,2.9,3.3,3.9,5.4c1,2,1.4,4.2,1.4,6.5c0,3.7-1,6.8-3,9.2c0.5,0.5,1,0.9,1.4,1.4c0.4,0.5,0.8,1,1.3,1.6
				c1.8,0.3,3,0.5,3.6,0.5c3.1,0,5.4-1.6,7-4.9c0.8-1.9,1.6-3.8,2.4-5.7c0.8-2,1.6-3.9,2.4-5.7c2.5-4.5,6.5-6.8,11.8-6.8
				c2.3,0,4.3,0.4,6.1,1.2c1.8,0.8,3.3,1.9,4.5,3.4c1.2,1.5,2.2,3.3,2.8,5.3c0.6,2.1,1,4.4,1,7c0,2.3-0.4,4.5-1.1,6.5
				c-0.7,2-1.8,3.7-3.1,5.2c-1.3,1.5-2.9,2.6-4.7,3.4s-3.8,1.2-5.9,1.2c-0.7,0-1.3,0-1.8,0s-1.2-0.1-2.1-0.3v-11
				c0.8,0.3,1.5,0.5,2.1,0.6c0.6,0.1,1.1,0.1,1.5,0.1c1.4,0,2.6-0.6,3.4-1.7c0.8-1.2,1.2-2.6,1.2-4.4c0-0.8-0.1-1.5-0.3-2.3
				c-0.2-0.7-0.4-1.3-0.8-1.9c-0.3-0.5-0.7-1-1.2-1.3s-1-0.5-1.6-0.5c-1.2,0-2.3,1.5-3.3,4.6c-0.4,1.1-0.7,2.1-1.1,3
				c-0.4,1-0.7,1.9-0.9,2.7C-307.7,34.6-308.4,35.9-309.4,37.8z M-299.3-3.5c-0.8,2.5-1.8,4.7-3.1,6.6c-1.3,1.9-2.8,3.4-4.5,4.6
				c-1.7,1.2-3.6,2.1-5.6,2.7s-4.2,0.9-6.5,0.9c-2.2,0-4.4-0.3-6.4-0.8c-2-0.6-3.9-1.4-5.6-2.6c-1.7-1.2-3.2-2.7-4.5-4.6
				c-1.3-1.9-2.4-4.1-3.2-6.7h9.3c1,2.3,2.4,4,4.2,4.9c1.8,1,3.9,1.4,6.2,1.4s4.4-0.5,6.2-1.4c1.8-1,3.2-2.6,4.2-4.9h9.3V-3.5z
				 M-312.6-6.1l-6.5,6.5l-6.7-6.5l6.7-6.7L-312.6-6.1z"/>
		</g>
	</g>
</g>
<g>
	<g>
		<circle class="st1" cx="51.8" cy="70" r="42.6"/>
		<circle class="st2" cx="51.8" cy="70" r="25.7"/>
	</g>
	<g class="st3">
		<path class="st1" d="M104.1,29.3h33l12.7,49.4l12.7-49.4h33v81.3H175v-62l-15.8,62h-18.6l-15.8-62v62h-20.6V29.3H104.1z"/>
	</g>
	<g class="st3">
		<path class="st4" d="M190.6,29.3h41.8c9.1,0,15.9,2.2,20.4,6.5c4.5,4.3,6.8,10.5,6.8,18.5c0,8.2-2.4,14.7-7.4,19.3
			c-5,4.6-12.5,6.9-22.6,6.9h-13.7v30.2h-25.3L190.6,29.3L190.6,29.3z M215.9,64h6.1c4.9,0,8.2-0.8,10.2-2.5c2-1.7,2.9-3.8,2.9-6.5
			c0-2.5-0.8-4.7-2.5-6.5c-1.7-1.7-4.9-2.7-9.6-2.7h-7.2V64H215.9z"/>
		<path class="st4" d="M270.4,29.3h67.4v17.3h-42.2v12.9h39.2v16.6h-39.2v15.9H339v18.5h-68.6V29.3z"/>
		<path class="st4" d="M350.7,110.6V29.3h41.9c7.7,0,13.7,0.7,17.8,2c4.2,1.4,7.4,3.8,9.9,7.4s3.8,8,3.8,13.2
			c0,4.5-0.9,8.4-2.9,11.7c-2,3.2-4.6,5.9-8,8c-2.2,1.3-5.1,2.3-8.8,3.2c3,1,5.2,2,6.6,3c0.9,0.7,2.3,2.1,4,4.3
			c1.7,2.2,2.9,3.8,3.5,5.1l12.1,23.6h-28.4l-13.4-24.8c-1.7-3.2-3.2-5.3-4.5-6.2c-1.8-1.3-3.8-1.8-6.1-1.8h-2.4v32.9H350.7z
			 M375.9,62.2h10.6c1.2,0,3.4-0.3,6.7-1.2c1.6-0.3,3-1.2,4-2.5c1-1.4,1.6-2.9,1.6-4.7c0-2.7-0.8-4.6-2.5-6
			c-1.6-1.4-4.7-2.1-9.4-2.1h-11.1V62.2z"/>
		<path class="st4" d="M436.4,29.3h67.4v17.3h-42.2v12.9h39v16.6h-39.2v15.9h43.4v18.5h-68.6V29.3H436.4z"/>
	</g>
	<polygon class="st1" points="457.4,-6.4 442.7,58.3 455.1,58.3 438,125.4 469.9,56.1 456.3,56.1 472.2,-6.4 	"/>
	<path class="st5" d="M10.6,126.6h506.8c0.7,0,1.4,0.5,1.4,1.2l0,0c0,0.6-0.6,1.2-1.4,1.2H10.6c-0.7,0-1.4-0.5-1.4-1.2l0,0
		C9.3,127,9.9,126.6,10.6,126.6z"/>
</g>
<g class="st3">
	<path class="st6" d="M137.7,148c-1,0-1.8-0.2-2.4-0.6c-0.6-0.4-0.9-1-0.9-1.7c0-0.1,0-0.2,0-0.3s0-0.2,0.1-0.3l1.4-6.1v-0.1v-0.1
		c0-0.1,0-0.2-0.1-0.3c0-0.1-0.1-0.2-0.2-0.2c-0.1-0.1-0.2-0.1-0.4-0.2c-0.2,0-0.3-0.1-0.4-0.1l0.1-0.5h4.2L139,138
		c-0.1,0-0.3,0-0.5,0.1c-0.2,0-0.4,0.1-0.5,0.1c-0.2,0.1-0.3,0.2-0.4,0.3c-0.1,0.1-0.1,0.3-0.2,0.4l-1.3,5.7c0,0.1-0.1,0.3-0.1,0.4
		c0,0.2,0,0.3,0,0.4c0,0.2,0,0.5,0.1,0.7s0.2,0.4,0.3,0.6c0.1,0.2,0.4,0.3,0.6,0.4c0.3,0.1,0.6,0.2,1,0.2c0.5,0,1-0.1,1.4-0.3
		s0.7-0.4,1-0.6c0.2-0.2,0.4-0.5,0.6-0.8s0.3-0.6,0.3-0.9c0.2-0.7,0.3-1.4,0.5-2c0.1-0.7,0.3-1.4,0.5-2.2c0.1-0.4,0.1-0.7,0.2-0.9
		c0-0.2,0-0.4,0-0.6c0-0.1,0-0.3,0-0.3c0-0.1-0.1-0.2-0.2-0.2c-0.1-0.1-0.3-0.2-0.6-0.3s-0.5-0.1-0.6-0.1l0.1-0.5h4.2l-0.1,0.5
		c-0.1,0-0.3,0-0.6,0.1s-0.5,0.1-0.7,0.2c-0.2,0.1-0.4,0.4-0.5,0.8c-0.2,0.4-0.3,0.8-0.4,1.2c-0.1,0.7-0.3,1.4-0.5,2.1
		c-0.2,0.7-0.3,1.5-0.5,2.3c-0.2,0.7-0.4,1.2-0.8,1.7c-0.3,0.4-0.7,0.8-1.1,1c-0.4,0.2-0.8,0.4-1.3,0.5S138.1,148,137.7,148z"/>
	<path class="st6" d="M147.9,147.9c-0.7,0-1.3-0.1-1.8-0.4s-0.7-0.6-0.7-1c0-0.2,0.1-0.4,0.2-0.5c0.1-0.2,0.3-0.3,0.5-0.3
		s0.3,0,0.5,0.1s0.2,0.2,0.3,0.3s0.1,0.3,0.2,0.4s0.1,0.3,0.1,0.4c0.1,0.1,0.2,0.2,0.3,0.2c0.1,0.1,0.3,0.1,0.6,0.1
		c0.5,0,0.9-0.1,1.2-0.4s0.4-0.6,0.4-1.1c0-0.3-0.1-0.6-0.4-0.8c-0.2-0.2-0.6-0.4-1.1-0.5c-0.2-0.1-0.4-0.1-0.6-0.3
		s-0.4-0.2-0.6-0.4c-0.2-0.2-0.3-0.3-0.4-0.5s-0.2-0.5-0.2-0.8c0-0.6,0.3-1.1,0.8-1.6s1.2-0.7,2-0.7c0.2,0,0.4,0,0.6,0
		c0.2,0,0.5,0.1,0.7,0.2c0.2,0.1,0.4,0.2,0.6,0.3c0.2,0.2,0.2,0.3,0.2,0.6c0,0.2-0.1,0.4-0.2,0.5c-0.1,0.2-0.3,0.2-0.5,0.2
		s-0.3,0-0.4-0.1c-0.1-0.1-0.2-0.2-0.3-0.3s-0.1-0.3-0.2-0.4c0-0.1-0.1-0.3-0.2-0.4c-0.1,0-0.2-0.1-0.2-0.1c-0.1,0-0.2,0-0.3,0
		c-0.5,0-0.8,0.1-1.1,0.4s-0.4,0.6-0.4,0.9c0,0.3,0.1,0.6,0.3,0.8s0.6,0.3,1.1,0.5c0.7,0.2,1.1,0.5,1.4,0.8c0.3,0.3,0.4,0.7,0.4,1.1
		c0,0.7-0.3,1.3-0.8,1.8C149.5,147.7,148.8,147.9,147.9,147.9z"/>
	<path class="st6" d="M159.5,142c0,0.5-0.2,0.9-0.5,1.3c-0.3,0.4-0.8,0.7-1.4,0.9c-0.4,0.2-0.9,0.3-1.4,0.4c-0.5,0.1-1,0.2-1.5,0.3
		c0,0.8,0.1,1.3,0.4,1.7c0.3,0.4,0.7,0.6,1.2,0.6s0.9-0.1,1.3-0.4c0.4-0.2,0.7-0.6,1.1-1.1l0.4,0.3c-0.4,0.6-0.9,1.1-1.4,1.4
		s-1.2,0.5-1.8,0.5c-0.9,0-1.5-0.2-1.9-0.7s-0.7-1.2-0.7-2c0-0.6,0.1-1.2,0.3-1.7s0.5-1.1,0.8-1.5c0.4-0.4,0.8-0.8,1.3-1.1
		s1.1-0.4,1.7-0.4c0.7,0,1.2,0.1,1.5,0.4C159.3,141.2,159.5,141.5,159.5,142z M158.2,141.8c0-0.2,0-0.3-0.1-0.4
		c-0.1-0.1-0.1-0.2-0.2-0.2c-0.1-0.1-0.2-0.1-0.3-0.1s-0.2,0-0.3,0c-0.6,0-1.1,0.3-1.6,0.9c-0.5,0.6-0.8,1.4-0.9,2.4
		c0.3,0,0.7-0.1,1.1-0.2c0.4-0.1,0.8-0.2,1.1-0.3c0.4-0.2,0.7-0.5,0.9-0.8C158.1,142.6,158.2,142.2,158.2,141.8z"/>
	<path class="st6" d="M166,146.7L166,146.7c-0.2,0.1-0.3,0.2-0.5,0.4s-0.3,0.3-0.5,0.4c-0.2,0.1-0.4,0.3-0.6,0.3
		c-0.2,0.1-0.4,0.1-0.7,0.1c-0.7,0-1.2-0.3-1.6-0.8c-0.4-0.5-0.6-1.2-0.6-2.1c0-0.6,0.1-1.2,0.3-1.8s0.5-1.1,0.9-1.5s0.8-0.8,1.3-1
		c0.5-0.3,1-0.4,1.6-0.4c0.3,0,0.7,0,1,0.1s0.6,0.2,0.8,0.3l0.6-2.5c0-0.1,0-0.2,0.1-0.3s0-0.2,0-0.2c0-0.2,0-0.3-0.1-0.4
		c-0.1-0.1-0.2-0.2-0.3-0.2s-0.3-0.1-0.5-0.1s-0.4,0-0.5-0.1l0.1-0.4l2.9-0.2l0.1,0.1l-2,8.6c0,0.2-0.1,0.3-0.1,0.5
		s-0.1,0.4-0.1,0.5c0,0.3,0.1,0.5,0.2,0.6c0.1,0.1,0.3,0.1,0.6,0.1c0.1,0,0.2,0,0.4,0s0.3-0.1,0.4-0.1l-0.1,0.5
		c-0.4,0.2-0.7,0.3-1,0.4s-0.5,0.1-0.7,0.1c-0.3,0-0.6-0.1-0.8-0.3C166.1,147.4,166,147.1,166,146.7z M167.1,142.1
		c0-0.1,0-0.3-0.1-0.4c-0.1-0.1-0.1-0.3-0.2-0.4c-0.1-0.1-0.3-0.2-0.4-0.3c-0.2-0.1-0.4-0.1-0.6-0.1c-0.4,0-0.7,0.1-1,0.3
		s-0.6,0.5-0.9,0.9c-0.2,0.4-0.4,0.8-0.6,1.3c-0.1,0.5-0.2,1-0.2,1.6c0,0.3,0,0.6,0.1,0.8c0,0.2,0.1,0.4,0.2,0.6
		c0.1,0.2,0.2,0.3,0.4,0.4c0.2,0.1,0.4,0.2,0.7,0.2s0.6-0.1,0.9-0.2c0.3-0.2,0.7-0.4,1-0.8L167.1,142.1z"/>
	<path class="st6" d="M189.9,137.5l-0.1,0.5c-0.1,0-0.3,0-0.5,0.1c-0.2,0-0.4,0.1-0.5,0.1c-0.2,0.1-0.3,0.2-0.4,0.3
		s-0.1,0.3-0.2,0.4l-1.7,7.4v0.1v0.1c0,0.1,0,0.2,0.1,0.3c0,0.1,0.1,0.2,0.2,0.2s0.2,0.1,0.4,0.1c0.2,0,0.4,0.1,0.5,0.1l-0.1,0.5
		h-4.5l0.1-0.5c0.2,0,0.4,0,0.6-0.1s0.4-0.1,0.5-0.1c0.2-0.1,0.3-0.2,0.4-0.3s0.2-0.3,0.2-0.4l1.8-7.6h-0.1l-5.6,8.9h-0.3l-1.3-9
		h-0.1l-1.5,6.3c-0.1,0.3-0.1,0.5-0.1,0.7s-0.1,0.4-0.1,0.6c0,0.2,0,0.3,0.1,0.4c0,0.1,0.1,0.2,0.1,0.3c0.1,0.1,0.3,0.2,0.5,0.3
		c0.3,0.1,0.5,0.1,0.7,0.2l-0.1,0.5h-4.1l0.1-0.5c0.2,0,0.5-0.1,0.7-0.1s0.4-0.1,0.6-0.2c0.2-0.1,0.4-0.3,0.5-0.6s0.3-0.8,0.4-1.4
		l1.2-5.3c0-0.1,0-0.2,0.1-0.3s0-0.2,0-0.3c0-0.2,0-0.3-0.1-0.4c0-0.1-0.1-0.2-0.2-0.3c-0.1-0.1-0.3-0.2-0.5-0.3s-0.4-0.1-0.6-0.1
		l0.1-0.5h3.5l1.1,7.7l4-6.4c0.1-0.2,0.3-0.5,0.4-0.8s0.2-0.4,0.2-0.5L189.9,137.5L189.9,137.5z"/>
	<path class="st6" d="M195.3,146.8L195.3,146.8c-0.2,0.1-0.3,0.2-0.4,0.3s-0.3,0.3-0.5,0.4c-0.2,0.1-0.4,0.2-0.6,0.3
		s-0.5,0.1-0.7,0.1c-0.7,0-1.2-0.2-1.6-0.8s-0.6-1.2-0.6-2c0-0.6,0.1-1.2,0.3-1.7c0.2-0.6,0.5-1.1,0.9-1.5s0.8-0.8,1.3-1
		c0.5-0.3,1-0.4,1.6-0.4c0.3,0,0.7,0,1,0.1s0.6,0.2,0.7,0.3l1.3-0.3l0.1,0.1l-1.1,4.7c0,0.1-0.1,0.3-0.1,0.5s-0.1,0.4-0.1,0.5
		c0,0.3,0.1,0.5,0.2,0.6s0.3,0.1,0.6,0.1c0.1,0,0.2,0,0.4,0c0.2,0,0.3-0.1,0.4-0.1l-0.1,0.5c-0.4,0.2-0.8,0.3-1,0.4
		c-0.2,0.1-0.5,0.1-0.8,0.1s-0.6-0.1-0.8-0.3C195.4,147.3,195.3,147.1,195.3,146.8z M196.3,142.2c0-0.2,0-0.3-0.1-0.5
		c0-0.1-0.1-0.3-0.2-0.4c-0.1-0.1-0.2-0.2-0.4-0.3s-0.4-0.1-0.6-0.1c-0.4,0-0.7,0.1-1,0.3s-0.6,0.5-0.9,0.9
		c-0.2,0.4-0.5,0.8-0.6,1.3c-0.2,0.5-0.2,1-0.2,1.6c0,0.3,0,0.6,0.1,0.8c0,0.2,0.1,0.4,0.2,0.6c0.1,0.2,0.2,0.3,0.4,0.4
		c0.2,0.1,0.4,0.2,0.7,0.2c0.3,0,0.5-0.1,0.8-0.2s0.6-0.4,1-0.8L196.3,142.2z"/>
	<path class="st6" d="M203.1,147.9c-0.8,0-1.5-0.2-2-0.7s-0.7-1.2-0.7-2.1c0-0.6,0.1-1.2,0.3-1.7c0.2-0.6,0.4-1,0.8-1.5
		c0.3-0.4,0.8-0.8,1.3-1s1.1-0.4,1.7-0.4c0.7,0,1.2,0.1,1.6,0.4c0.4,0.3,0.5,0.7,0.5,1.1c0,0.3-0.1,0.6-0.2,0.9s-0.4,0.4-0.7,0.4
		c-0.3,0-0.5-0.1-0.6-0.2c-0.1-0.1-0.2-0.3-0.2-0.4c0-0.2,0.1-0.4,0.2-0.6c0.1-0.3,0.2-0.5,0.2-0.6c-0.1-0.1-0.2-0.2-0.4-0.3
		c-0.2-0.1-0.4-0.1-0.6-0.1c-0.7,0-1.2,0.4-1.7,1.1c-0.5,0.8-0.7,1.7-0.7,2.8c0,0.7,0.2,1.2,0.5,1.6c0.3,0.4,0.7,0.6,1.2,0.6
		s0.9-0.1,1.2-0.4s0.7-0.6,1-1.1l0.4,0.3c-0.3,0.5-0.8,1-1.4,1.4C204.3,147.7,203.7,147.9,203.1,147.9z"/>
	<path class="st6" d="M215.6,146.9l-0.1,0.5c-0.4,0.2-0.8,0.3-1,0.4s-0.5,0.1-0.7,0.1c-0.4,0-0.7-0.1-0.9-0.3s-0.3-0.4-0.3-0.7
		c0-0.1,0-0.2,0-0.3s0.1-0.3,0.1-0.5l0.7-2.7c0.1-0.2,0.1-0.4,0.1-0.6c0-0.2,0-0.3,0-0.4c0-0.3-0.1-0.6-0.2-0.8s-0.4-0.3-0.7-0.3
		c-0.3,0-0.6,0.1-1,0.3s-0.7,0.5-1,0.8l-1.2,5.3h-1.3l2.1-9.3c0-0.1,0-0.2,0.1-0.3s0-0.2,0-0.2c0-0.2,0-0.3-0.1-0.4
		s-0.1-0.2-0.2-0.2s-0.2-0.1-0.4-0.1c-0.2,0-0.3,0-0.5-0.1l0.1-0.4l2.7-0.2l0.1,0.1l-1.2,5l0,0c0.5-0.4,0.9-0.7,1.3-0.9
		s0.8-0.3,1.3-0.3s0.8,0.1,1.1,0.4c0.3,0.3,0.4,0.6,0.4,1c0,0.1,0,0.2,0,0.5c0,0.2-0.1,0.4-0.1,0.7l-0.6,2.3c0,0.2-0.1,0.3-0.1,0.5
		s-0.1,0.4-0.1,0.5c0,0.3,0.1,0.5,0.2,0.6s0.3,0.1,0.6,0.1c0.1,0,0.2,0,0.4,0C215.4,147,215.5,146.9,215.6,146.9z"/>
	<path class="st6" d="M221.2,146.9l-0.1,0.5c-0.4,0.2-0.8,0.3-1.1,0.4c-0.3,0.1-0.5,0.1-0.7,0.1c-0.4,0-0.7-0.1-0.9-0.3
		c-0.2-0.2-0.3-0.4-0.3-0.7c0-0.1,0-0.2,0-0.3s0.1-0.3,0.1-0.5l0.8-3.1c0-0.2,0.1-0.3,0.1-0.5s0.1-0.4,0.1-0.5c0-0.3,0-0.4-0.1-0.5
		s-0.3-0.1-0.5-0.1c-0.1,0-0.2,0-0.4,0c-0.2,0-0.3,0.1-0.4,0.1l0.1-0.5c0.4-0.2,0.7-0.3,1-0.4c0.3-0.1,0.5-0.1,0.7-0.1
		c0.4,0,0.7,0.1,0.9,0.3s0.3,0.4,0.3,0.8c0,0.1,0,0.2,0,0.4c0,0.1,0,0.3-0.1,0.4l-0.8,3.1c0,0.2-0.1,0.4-0.1,0.6
		c0,0.2-0.1,0.3-0.1,0.4c0,0.3,0.1,0.5,0.2,0.6s0.3,0.2,0.6,0.2c0.1,0,0.2,0,0.4,0C221,147,221.1,147,221.2,146.9z M221.7,137.7
		c0,0.3-0.1,0.5-0.3,0.7s-0.4,0.3-0.7,0.3c-0.2,0-0.5-0.1-0.6-0.3s-0.3-0.4-0.3-0.7s0.1-0.5,0.3-0.7s0.4-0.3,0.6-0.3
		c0.3,0,0.5,0.1,0.7,0.3C221.6,137.3,221.7,137.5,221.7,137.7z"/>
	<path class="st6" d="M231.1,146.9l-0.1,0.5c-0.4,0.2-0.8,0.3-1,0.4s-0.5,0.1-0.7,0.1c-0.4,0-0.7-0.1-0.9-0.3s-0.3-0.4-0.3-0.7
		c0-0.1,0-0.2,0-0.3s0-0.3,0.1-0.5l0.7-2.7c0.1-0.2,0.1-0.4,0.1-0.6c0-0.2,0-0.3,0-0.4c0-0.3-0.1-0.6-0.2-0.8s-0.4-0.3-0.7-0.3
		c-0.3,0-0.6,0.1-1,0.3s-0.7,0.5-1,0.8l-1.2,5.3h-1.3l1.1-4.7c0-0.1,0.1-0.3,0.1-0.5s0.1-0.4,0.1-0.5c0-0.3,0-0.5-0.1-0.5
		c-0.1-0.1-0.3-0.1-0.5-0.1c-0.1,0-0.2,0-0.4,0.1s-0.3,0.1-0.4,0.1l0.1-0.5c0.4-0.2,0.7-0.3,1-0.4c0.3-0.1,0.5-0.1,0.7-0.1
		c0.4,0,0.7,0.1,0.8,0.3c0.2,0.2,0.3,0.5,0.3,0.9l0,0c0.5-0.4,1-0.7,1.4-0.9s0.8-0.3,1.3-0.3s0.8,0.1,1.1,0.4c0.3,0.3,0.4,0.6,0.4,1
		c0,0.1,0,0.2,0,0.5c0,0.2-0.1,0.4-0.1,0.7l-0.6,2.3c0,0.2-0.1,0.3-0.1,0.5s-0.1,0.4-0.1,0.5c0,0.3,0.1,0.5,0.2,0.6s0.3,0.1,0.6,0.1
		c0.1,0,0.2,0,0.4,0C230.9,147,231,146.9,231.1,146.9z"/>
	<path class="st6" d="M239.4,142c0,0.5-0.2,0.9-0.5,1.3c-0.3,0.4-0.8,0.7-1.4,0.9c-0.4,0.2-0.9,0.3-1.4,0.4c-0.5,0.1-1,0.2-1.5,0.3
		c0,0.8,0.1,1.3,0.4,1.7s0.7,0.6,1.2,0.6s0.9-0.1,1.3-0.4s0.7-0.6,1.1-1.1l0.4,0.3c-0.4,0.6-0.9,1.1-1.4,1.4
		c-0.6,0.4-1.2,0.5-1.8,0.5c-0.8,0-1.5-0.2-1.9-0.7s-0.7-1.2-0.7-2c0-0.6,0.1-1.2,0.3-1.7c0.2-0.5,0.5-1.1,0.8-1.5
		c0.4-0.4,0.8-0.8,1.3-1.1s1.1-0.4,1.7-0.4c0.7,0,1.2,0.1,1.5,0.4S239.4,141.5,239.4,142z M238,141.8c0-0.2,0-0.3-0.1-0.4
		c-0.1-0.1-0.1-0.2-0.2-0.2c-0.1-0.1-0.2-0.1-0.3-0.1c-0.1,0-0.2,0-0.3,0c-0.6,0-1.1,0.3-1.6,0.9c-0.5,0.6-0.8,1.4-0.9,2.4
		c0.3,0,0.7-0.1,1.1-0.2c0.4-0.1,0.8-0.2,1.1-0.3c0.4-0.2,0.7-0.5,0.9-0.8C237.9,142.6,238,142.2,238,141.8z"/>
	<path class="st6" d="M243.4,147.9c-0.7,0-1.3-0.1-1.8-0.4s-0.7-0.6-0.7-1c0-0.2,0.1-0.4,0.2-0.5c0.1-0.2,0.3-0.3,0.5-0.3
		s0.3,0,0.5,0.1c0.1,0.1,0.2,0.2,0.3,0.3c0.1,0.1,0.1,0.3,0.2,0.4c0.1,0.2,0.1,0.3,0.1,0.4c0.1,0.1,0.2,0.2,0.3,0.2
		c0.1,0.1,0.3,0.1,0.6,0.1c0.5,0,0.9-0.1,1.2-0.4s0.4-0.6,0.4-1.1c0-0.3-0.1-0.6-0.4-0.8c-0.2-0.2-0.6-0.4-1.1-0.5
		c-0.2-0.1-0.4-0.1-0.6-0.3s-0.4-0.2-0.6-0.4s-0.3-0.3-0.4-0.5s-0.2-0.5-0.2-0.8c0-0.6,0.3-1.1,0.8-1.6s1.2-0.7,2-0.7
		c0.2,0,0.4,0,0.6,0s0.5,0.1,0.7,0.2c0.2,0.1,0.4,0.2,0.6,0.3s0.2,0.3,0.2,0.6c0,0.2-0.1,0.4-0.2,0.5c-0.1,0.2-0.3,0.2-0.5,0.2
		s-0.3,0-0.4-0.1s-0.2-0.2-0.3-0.3c-0.1-0.1-0.1-0.3-0.2-0.4c0-0.1-0.1-0.3-0.2-0.4c-0.1,0-0.2-0.1-0.2-0.1c-0.1,0-0.2,0-0.3,0
		c-0.5,0-0.8,0.1-1.1,0.4s-0.4,0.6-0.4,0.9c0,0.3,0.1,0.6,0.3,0.8s0.6,0.3,1.1,0.5c0.7,0.2,1.1,0.5,1.4,0.8s0.4,0.7,0.4,1.1
		c0,0.7-0.3,1.3-0.8,1.8C245,147.7,244.3,147.9,243.4,147.9z"/>
	<path class="st6" d="M251.3,147c0,0.4-0.1,0.8-0.3,1.1c-0.2,0.4-0.4,0.7-0.7,1c-0.3,0.3-0.6,0.5-0.9,0.7s-0.6,0.3-0.8,0.5l-0.2-0.5
		c0.2-0.1,0.4-0.3,0.7-0.4c0.2-0.2,0.4-0.3,0.6-0.5s0.4-0.4,0.5-0.6c0.1-0.2,0.2-0.4,0.3-0.7h-0.3c-0.3,0-0.5-0.1-0.7-0.2
		s-0.2-0.3-0.2-0.6c0-0.2,0.1-0.5,0.3-0.7c0.2-0.2,0.5-0.3,0.8-0.3c0.4,0,0.6,0.1,0.8,0.3C251.3,146.4,251.3,146.7,251.3,147z"/>
	<path class="st6" d="M263,148c-1,0-1.8-0.2-2.4-0.6c-0.6-0.4-0.9-1-0.9-1.7c0-0.1,0-0.2,0-0.3s0-0.2,0.1-0.3l1.4-6.1v-0.1v-0.1
		c0-0.1,0-0.2-0.1-0.3c-0.1-0.1-0.1-0.2-0.2-0.2c-0.1-0.1-0.2-0.1-0.4-0.2c-0.2,0-0.3-0.1-0.4-0.1l0.1-0.5h4.2l-0.1,0.5
		c-0.1,0-0.3,0-0.5,0.1c-0.2,0-0.4,0.1-0.5,0.1c-0.2,0.1-0.3,0.2-0.4,0.3c-0.1,0.1-0.1,0.3-0.2,0.4l-1.3,5.7c0,0.1-0.1,0.3-0.1,0.4
		c0,0.2,0,0.3,0,0.4c0,0.2,0,0.5,0.1,0.7c0.1,0.2,0.2,0.4,0.3,0.6c0.1,0.2,0.4,0.3,0.6,0.4c0.3,0.1,0.6,0.2,1,0.2
		c0.5,0,1-0.1,1.4-0.3c0.4-0.2,0.7-0.4,1-0.6c0.2-0.2,0.4-0.5,0.6-0.8s0.3-0.6,0.3-0.9c0.2-0.7,0.3-1.4,0.5-2
		c0.1-0.7,0.3-1.4,0.5-2.2c0.1-0.4,0.1-0.7,0.2-0.9c0-0.2,0-0.4,0-0.6c0-0.1,0-0.3,0-0.3s-0.1-0.2-0.2-0.2c-0.1-0.1-0.3-0.2-0.6-0.3
		s-0.5-0.1-0.6-0.1l0.1-0.5h4.2l-0.1,0.5c-0.1,0-0.3,0-0.6,0.1s-0.5,0.1-0.7,0.2c-0.2,0.1-0.4,0.4-0.5,0.8c-0.2,0.4-0.3,0.8-0.4,1.2
		c-0.1,0.7-0.3,1.4-0.5,2.1c-0.2,0.7-0.3,1.5-0.5,2.3c-0.2,0.7-0.4,1.2-0.8,1.7c-0.3,0.4-0.7,0.8-1.1,1c-0.4,0.2-0.8,0.4-1.3,0.5
		C263.9,147.9,263.4,148,263,148z"/>
	<path class="st6" d="M278.9,146.9l-0.1,0.5c-0.4,0.2-0.8,0.3-1,0.4s-0.5,0.1-0.7,0.1c-0.4,0-0.7-0.1-0.9-0.3
		c-0.2-0.2-0.3-0.4-0.3-0.7c0-0.1,0-0.2,0-0.3s0-0.3,0.1-0.5l0.7-2.7c0.1-0.2,0.1-0.4,0.1-0.6c0-0.2,0-0.3,0-0.4
		c0-0.3-0.1-0.6-0.2-0.8c-0.1-0.2-0.4-0.3-0.7-0.3s-0.6,0.1-1,0.3c-0.4,0.2-0.7,0.5-1,0.8l-1.2,5.3h-1.3l1.1-4.7
		c0-0.1,0.1-0.3,0.1-0.5s0.1-0.4,0.1-0.5c0-0.3,0-0.5-0.1-0.5c-0.1-0.1-0.3-0.1-0.5-0.1c-0.1,0-0.2,0-0.4,0.1
		c-0.2,0.1-0.3,0.1-0.4,0.1l0.1-0.5c0.4-0.2,0.7-0.3,1-0.4c0.3-0.1,0.5-0.1,0.7-0.1c0.4,0,0.7,0.1,0.8,0.3c0.2,0.2,0.3,0.5,0.3,0.9
		l0,0c0.5-0.4,1-0.7,1.4-0.9c0.4-0.2,0.8-0.3,1.3-0.3s0.8,0.1,1.1,0.4c0.3,0.3,0.4,0.6,0.4,1c0,0.1,0,0.2,0,0.5
		c0,0.2-0.1,0.4-0.1,0.7l-0.6,2.3c0,0.2-0.1,0.3-0.1,0.5s-0.1,0.4-0.1,0.5c0,0.3,0.1,0.5,0.2,0.6c0.1,0.1,0.3,0.1,0.6,0.1
		c0.1,0,0.2,0,0.4,0C278.7,147,278.8,146.9,278.9,146.9z"/>
	<path class="st6" d="M285.6,146.7L285.6,146.7c-0.3,0.2-0.5,0.3-0.7,0.5c-0.2,0.1-0.4,0.3-0.6,0.4c-0.2,0.1-0.4,0.2-0.6,0.2
		s-0.4,0.1-0.7,0.1c-0.5,0-0.8-0.1-1.1-0.4c-0.3-0.3-0.4-0.6-0.4-1c0-0.1,0-0.3,0-0.4s0.1-0.4,0.1-0.7l0.6-2.3
		c0-0.2,0.1-0.4,0.1-0.6s0-0.3,0-0.5c0-0.3,0-0.4-0.1-0.5c-0.1-0.1-0.3-0.1-0.5-0.1c-0.1,0-0.2,0-0.4,0.1c-0.2,0.1-0.3,0.1-0.4,0.1
		l0.1-0.5c0.4-0.2,0.7-0.3,1-0.4c0.3-0.1,0.5-0.1,0.7-0.1c0.4,0,0.7,0.1,0.8,0.3c0.2,0.2,0.3,0.4,0.3,0.8c0,0.1,0,0.2,0,0.4
		c0,0.1,0,0.3-0.1,0.4l-0.6,2.7c0,0.2-0.1,0.4-0.1,0.6c0,0.2,0,0.3,0,0.4c0,0.3,0.1,0.6,0.2,0.8c0.1,0.2,0.4,0.3,0.7,0.3
		s0.6-0.1,0.9-0.2c0.3-0.2,0.6-0.4,1-0.7l1.3-5.4l1.3-0.1l0.1,0.1l-1.1,4.6c0,0.2-0.1,0.4-0.1,0.6s-0.1,0.3-0.1,0.4
		c0,0.3,0.1,0.5,0.2,0.6c0.1,0.1,0.3,0.1,0.6,0.1c0.1,0,0.2,0,0.4,0s0.3-0.1,0.4-0.1l-0.1,0.5c-0.4,0.2-0.7,0.3-1,0.4
		s-0.5,0.1-0.7,0.1c-0.4,0-0.7-0.1-0.9-0.3C285.9,147.7,285.6,147,285.6,146.7z"/>
	<path class="st6" d="M292.8,147.9c-0.7,0-1.3-0.1-1.8-0.4s-0.7-0.6-0.7-1c0-0.2,0.1-0.4,0.2-0.5c0.1-0.2,0.3-0.3,0.5-0.3
		s0.3,0,0.5,0.1c0.1,0.1,0.2,0.2,0.3,0.3c0.1,0.1,0.1,0.3,0.2,0.4c0.1,0.2,0.1,0.3,0.1,0.4c0.1,0.1,0.2,0.2,0.3,0.2
		c0.1,0.1,0.3,0.1,0.6,0.1c0.5,0,0.9-0.1,1.2-0.4c0.3-0.3,0.4-0.6,0.4-1.1c0-0.3-0.1-0.6-0.4-0.8c-0.2-0.2-0.6-0.4-1.1-0.5
		c-0.2-0.1-0.4-0.1-0.6-0.3s-0.4-0.2-0.6-0.4s-0.3-0.3-0.4-0.5c-0.1-0.2-0.2-0.5-0.2-0.8c0-0.6,0.3-1.1,0.8-1.6s1.2-0.7,2-0.7
		c0.2,0,0.4,0,0.6,0s0.5,0.1,0.7,0.2c0.2,0.1,0.4,0.2,0.6,0.3s0.2,0.3,0.2,0.6c0,0.2-0.1,0.4-0.2,0.5c-0.1,0.2-0.3,0.2-0.5,0.2
		s-0.3,0-0.4-0.1c-0.1-0.1-0.2-0.2-0.3-0.3c-0.1-0.1-0.1-0.3-0.2-0.4c0-0.1-0.1-0.3-0.2-0.4c-0.1,0-0.2-0.1-0.2-0.1
		c-0.1,0-0.2,0-0.3,0c-0.5,0-0.8,0.1-1.1,0.4c-0.3,0.3-0.4,0.6-0.4,0.9c0,0.3,0.1,0.6,0.3,0.8c0.2,0.2,0.6,0.3,1.1,0.5
		c0.7,0.2,1.1,0.5,1.4,0.8s0.4,0.7,0.4,1.1c0,0.7-0.3,1.3-0.8,1.8C294.3,147.7,293.6,147.9,292.8,147.9z"/>
	<path class="st6" d="M304.4,142c0,0.5-0.2,0.9-0.5,1.3c-0.3,0.4-0.8,0.7-1.4,0.9c-0.4,0.2-0.9,0.3-1.4,0.4c-0.5,0.1-1,0.2-1.5,0.3
		c0,0.8,0.1,1.3,0.4,1.7s0.7,0.6,1.2,0.6s0.9-0.1,1.3-0.4c0.4-0.3,0.7-0.6,1.1-1.1l0.4,0.3c-0.4,0.6-0.9,1.1-1.4,1.4
		c-0.6,0.4-1.2,0.5-1.8,0.5c-0.8,0-1.5-0.2-1.9-0.7c-0.4-0.5-0.7-1.2-0.7-2c0-0.6,0.1-1.2,0.3-1.7c0.2-0.5,0.5-1.1,0.8-1.5
		c0.4-0.4,0.8-0.8,1.3-1.1s1.1-0.4,1.7-0.4c0.7,0,1.2,0.1,1.5,0.4S304.4,141.5,304.4,142z M303,141.8c0-0.2,0-0.3-0.1-0.4
		c-0.1-0.1-0.1-0.2-0.2-0.2c-0.1-0.1-0.2-0.1-0.3-0.1s-0.2,0-0.3,0c-0.6,0-1.1,0.3-1.6,0.9c-0.5,0.6-0.8,1.4-0.9,2.4
		c0.3,0,0.7-0.1,1.1-0.2c0.4-0.1,0.8-0.2,1.1-0.3c0.4-0.2,0.7-0.5,0.9-0.8C302.9,142.6,303,142.2,303,141.8z"/>
	<path class="st6" d="M310.9,146.7L310.9,146.7c-0.2,0.1-0.3,0.2-0.5,0.4s-0.3,0.3-0.5,0.4c-0.2,0.1-0.4,0.3-0.6,0.3
		c-0.2,0.1-0.4,0.1-0.7,0.1c-0.7,0-1.2-0.3-1.6-0.8c-0.4-0.5-0.6-1.2-0.6-2.1c0-0.6,0.1-1.2,0.3-1.8c0.2-0.6,0.5-1.1,0.9-1.5
		c0.4-0.4,0.8-0.8,1.3-1c0.5-0.3,1-0.4,1.6-0.4c0.3,0,0.7,0,1,0.1s0.6,0.2,0.8,0.3l0.6-2.5c0-0.1,0-0.2,0.1-0.3c0-0.1,0-0.2,0-0.2
		c0-0.2,0-0.3-0.1-0.4c-0.1-0.1-0.2-0.2-0.3-0.2c-0.1,0-0.3-0.1-0.5-0.1s-0.4,0-0.5-0.1l0.1-0.4l2.9-0.2l0.1,0.1l-2,8.6
		c0,0.2-0.1,0.3-0.1,0.5s-0.1,0.4-0.1,0.5c0,0.3,0.1,0.5,0.2,0.6c0.1,0.1,0.3,0.1,0.6,0.1c0.1,0,0.2,0,0.4,0c0.2,0,0.3-0.1,0.4-0.1
		l-0.1,0.5c-0.4,0.2-0.7,0.3-1,0.4s-0.5,0.1-0.7,0.1c-0.3,0-0.6-0.1-0.8-0.3C311,147.4,310.9,147.1,310.9,146.7z M311.9,142.1
		c0-0.1,0-0.3-0.1-0.4c-0.1-0.1-0.1-0.3-0.2-0.4c-0.1-0.1-0.3-0.2-0.4-0.3c-0.2-0.1-0.4-0.1-0.6-0.1c-0.4,0-0.7,0.1-1,0.3
		s-0.6,0.5-0.9,0.9c-0.2,0.4-0.4,0.8-0.6,1.3c-0.1,0.5-0.2,1-0.2,1.6c0,0.3,0,0.6,0.1,0.8c0,0.2,0.1,0.4,0.2,0.6
		c0.1,0.2,0.2,0.3,0.4,0.4c0.2,0.1,0.4,0.2,0.7,0.2s0.6-0.1,0.9-0.2c0.3-0.2,0.7-0.4,1-0.8L311.9,142.1z"/>
	<path class="st6" d="M329.7,139.6c0,0.6-0.1,1.1-0.4,1.6s-0.6,0.8-1,1.1c-0.4,0.3-0.9,0.6-1.4,0.7c-0.5,0.2-1.1,0.2-1.6,0.2h-1.2
		l-0.7,3.2v0.1v0.1c0,0.1,0,0.2,0.1,0.3c0,0.1,0.1,0.1,0.2,0.2c0.1,0,0.2,0.1,0.4,0.1c0.2,0,0.4,0,0.6,0.1l-0.1,0.5h-4.4l0.1-0.5
		c0.1,0,0.3,0,0.5-0.1c0.2,0,0.4-0.1,0.5-0.1c0.2-0.1,0.3-0.2,0.4-0.3c0.1-0.1,0.2-0.3,0.2-0.4l1.7-7.4v-0.1c0-0.1,0-0.1,0-0.2
		c0-0.1,0-0.2-0.1-0.3c0-0.1-0.1-0.1-0.2-0.2c-0.2-0.1-0.3-0.1-0.5-0.1s-0.3,0-0.5-0.1l0.1-0.5h4.5c0.8,0,1.5,0.2,2,0.6
		C329.4,138.4,329.7,138.9,329.7,139.6z M327.4,141.5c0.2-0.3,0.3-0.6,0.4-0.9c0.1-0.3,0.1-0.6,0.1-0.9c0-0.2,0-0.4-0.1-0.6
		c-0.1-0.2-0.2-0.4-0.3-0.5c-0.1-0.2-0.3-0.3-0.6-0.4c-0.2-0.1-0.5-0.1-0.9-0.1h-0.9l-1,4.6h0.8c0.6,0,1-0.1,1.4-0.3
		C326.8,142.2,327.1,141.9,327.4,141.5z"/>
	<path class="st6" d="M337.9,143.3c0,0.6-0.1,1.1-0.3,1.7c-0.2,0.6-0.5,1.1-0.8,1.5c-0.4,0.4-0.8,0.8-1.3,1.1s-1.1,0.4-1.8,0.4
		c-0.8,0-1.4-0.3-1.9-0.8s-0.7-1.2-0.7-2.1c0-0.6,0.1-1.2,0.3-1.8c0.2-0.6,0.5-1,0.8-1.5c0.4-0.4,0.8-0.8,1.3-1
		c0.5-0.3,1.1-0.4,1.7-0.4c0.9,0,1.5,0.3,2,0.8C337.6,141.8,337.9,142.4,337.9,143.3z M336.4,143c0-0.7-0.1-1.2-0.4-1.5
		c-0.2-0.3-0.6-0.5-1-0.5c-0.4,0-0.8,0.1-1.1,0.4c-0.4,0.2-0.7,0.6-0.9,1.2c-0.2,0.4-0.3,0.9-0.4,1.4c-0.1,0.5-0.1,1-0.1,1.4
		c0,0.7,0.1,1.2,0.4,1.6c0.2,0.4,0.6,0.5,1.1,0.5c0.4,0,0.8-0.1,1.1-0.4c0.3-0.3,0.6-0.6,0.8-1s0.4-0.9,0.5-1.4
		C336.3,144.1,336.4,143.6,336.4,143z"/>
	<path class="st6" d="M341.7,147.9c-0.5,0-0.8-0.1-1-0.3s-0.3-0.5-0.3-0.8c0-0.1,0-0.2,0-0.3s0-0.2,0.1-0.3l1.1-4.8h-1.3l0.2-0.7
		h1.3l0.5-2.1h1.3l-0.5,2.1h2l-0.2,0.7h-2l-0.9,4c0,0.2-0.1,0.4-0.1,0.5c0,0.2,0,0.3,0,0.4c0,0.3,0.1,0.5,0.2,0.6
		c0.1,0.1,0.4,0.2,0.7,0.2c0.1,0,0.3,0,0.5,0s0.4-0.1,0.5-0.1l-0.1,0.5c-0.3,0.1-0.7,0.2-1,0.3C342.5,147.8,342.1,147.9,341.7,147.9
		z"/>
	<path class="st6" d="M352.5,142c0,0.5-0.2,0.9-0.5,1.3c-0.3,0.4-0.8,0.7-1.4,0.9c-0.4,0.2-0.9,0.3-1.4,0.4c-0.5,0.1-1,0.2-1.5,0.3
		c0,0.8,0.1,1.3,0.4,1.7s0.7,0.6,1.2,0.6s0.9-0.1,1.3-0.4c0.4-0.3,0.7-0.6,1.1-1.1l0.4,0.3c-0.4,0.6-0.9,1.1-1.4,1.4
		c-0.6,0.4-1.2,0.5-1.8,0.5c-0.8,0-1.5-0.2-1.9-0.7c-0.4-0.5-0.7-1.2-0.7-2c0-0.6,0.1-1.2,0.3-1.7c0.2-0.5,0.5-1.1,0.8-1.5
		c0.4-0.4,0.8-0.8,1.3-1.1s1.1-0.4,1.7-0.4c0.7,0,1.2,0.1,1.5,0.4S352.5,141.5,352.5,142z M351.2,141.8c0-0.2,0-0.3-0.1-0.4
		c-0.1-0.1-0.1-0.2-0.2-0.2c-0.1-0.1-0.2-0.1-0.3-0.1s-0.2,0-0.3,0c-0.6,0-1.1,0.3-1.6,0.9c-0.5,0.6-0.8,1.4-0.9,2.4
		c0.3,0,0.7-0.1,1.1-0.2c0.4-0.1,0.8-0.2,1.1-0.3c0.4-0.2,0.7-0.5,0.9-0.8C351.1,142.6,351.2,142.2,351.2,141.8z"/>
	<path class="st6" d="M362.2,146.9l-0.1,0.5c-0.4,0.2-0.8,0.3-1,0.4s-0.5,0.1-0.7,0.1c-0.4,0-0.7-0.1-0.9-0.3
		c-0.2-0.2-0.3-0.4-0.3-0.7c0-0.1,0-0.2,0-0.3s0-0.3,0.1-0.5l0.7-2.7c0.1-0.2,0.1-0.4,0.1-0.6c0-0.2,0-0.3,0-0.4
		c0-0.3-0.1-0.6-0.2-0.8c-0.1-0.2-0.4-0.3-0.7-0.3s-0.6,0.1-1,0.3c-0.4,0.2-0.7,0.5-1,0.8l-1.2,5.3h-1.3l1.1-4.7
		c0-0.1,0.1-0.3,0.1-0.5s0.1-0.4,0.1-0.5c0-0.3,0-0.5-0.1-0.5c-0.1-0.1-0.3-0.1-0.5-0.1c-0.1,0-0.2,0-0.4,0.1
		c-0.2,0.1-0.3,0.1-0.4,0.1l0.1-0.5c0.4-0.2,0.7-0.3,1-0.4c0.3-0.1,0.5-0.1,0.7-0.1c0.4,0,0.7,0.1,0.8,0.3c0.2,0.2,0.3,0.5,0.3,0.9
		l0,0c0.5-0.4,1-0.7,1.4-0.9c0.4-0.2,0.8-0.3,1.3-0.3s0.8,0.1,1.1,0.4c0.3,0.3,0.4,0.6,0.4,1c0,0.1,0,0.2,0,0.5
		c0,0.2-0.1,0.4-0.1,0.7l-0.6,2.3c0,0.2-0.1,0.3-0.1,0.5s-0.1,0.4-0.1,0.5c0,0.3,0.1,0.5,0.2,0.6c0.1,0.1,0.3,0.1,0.6,0.1
		c0.1,0,0.2,0,0.4,0C362,147,362.2,146.9,362.2,146.9z"/>
	<path class="st6" d="M366,147.9c-0.5,0-0.8-0.1-1-0.3s-0.3-0.5-0.3-0.8c0-0.1,0-0.2,0-0.3s0-0.2,0.1-0.3l1.1-4.8h-1.3l0.2-0.7h1.3
		l0.5-2.1h1.3l-0.5,2.1h2l-0.2,0.7h-2l-0.9,4c0,0.2-0.1,0.4-0.1,0.5c0,0.2,0,0.3,0,0.4c0,0.3,0.1,0.5,0.2,0.6
		c0.1,0.1,0.4,0.2,0.7,0.2c0.1,0,0.3,0,0.5,0s0.4-0.1,0.5-0.1l-0.1,0.5c-0.3,0.1-0.7,0.2-1,0.3C366.8,147.8,366.4,147.9,366,147.9z"
		/>
	<path class="st6" d="M374.1,146.9l-0.1,0.5c-0.4,0.2-0.8,0.3-1.1,0.4c-0.3,0.1-0.5,0.1-0.7,0.1c-0.4,0-0.7-0.1-0.9-0.3
		c-0.2-0.2-0.3-0.4-0.3-0.7c0-0.1,0-0.2,0-0.3s0.1-0.3,0.1-0.5l0.8-3.1c0-0.2,0.1-0.3,0.1-0.5s0.1-0.4,0.1-0.5c0-0.3,0-0.4-0.1-0.5
		c-0.1-0.1-0.3-0.1-0.5-0.1c-0.1,0-0.2,0-0.4,0s-0.3,0.1-0.4,0.1l0.1-0.5c0.4-0.2,0.7-0.3,1-0.4c0.3-0.1,0.5-0.1,0.7-0.1
		c0.4,0,0.7,0.1,0.9,0.3c0.2,0.2,0.3,0.4,0.3,0.8c0,0.1,0,0.2,0,0.4c0,0.1,0,0.3-0.1,0.4l-0.8,3.1c0,0.2-0.1,0.4-0.1,0.6
		c0,0.2-0.1,0.3-0.1,0.4c0,0.3,0.1,0.5,0.2,0.6c0.1,0.1,0.3,0.2,0.6,0.2c0.1,0,0.2,0,0.4,0C373.9,147,374,147,374.1,146.9z
		 M374.6,137.7c0,0.3-0.1,0.5-0.3,0.7c-0.2,0.2-0.4,0.3-0.7,0.3c-0.2,0-0.5-0.1-0.6-0.3c-0.1-0.2-0.3-0.4-0.3-0.7s0.1-0.5,0.3-0.7
		c0.2-0.2,0.4-0.3,0.6-0.3c0.3,0,0.5,0.1,0.7,0.3C374.5,137.3,374.6,137.5,374.6,137.7z"/>
	<path class="st6" d="M380.7,146.8L380.7,146.8c-0.2,0.1-0.3,0.2-0.4,0.3c-0.1,0.1-0.3,0.3-0.5,0.4c-0.2,0.1-0.4,0.2-0.6,0.3
		s-0.5,0.1-0.7,0.1c-0.7,0-1.2-0.2-1.6-0.8c-0.4-0.6-0.6-1.2-0.6-2c0-0.6,0.1-1.2,0.3-1.7c0.2-0.6,0.5-1.1,0.9-1.5
		c0.4-0.4,0.8-0.8,1.3-1c0.5-0.3,1-0.4,1.6-0.4c0.3,0,0.7,0,1,0.1s0.6,0.2,0.7,0.3l1.3-0.3l0.1,0.1l-1.1,4.7c0,0.1-0.1,0.3-0.1,0.5
		s-0.1,0.4-0.1,0.5c0,0.3,0.1,0.5,0.2,0.6c0.1,0.1,0.3,0.1,0.6,0.1c0.1,0,0.2,0,0.4,0s0.3-0.1,0.4-0.1l-0.1,0.5
		c-0.4,0.2-0.8,0.3-1,0.4c-0.2,0.1-0.5,0.1-0.8,0.1s-0.6-0.1-0.8-0.3C380.9,147.3,380.7,147.1,380.7,146.8z M381.8,142.2
		c0-0.2,0-0.3-0.1-0.5c0-0.1-0.1-0.3-0.2-0.4c-0.1-0.1-0.2-0.2-0.4-0.3c-0.2-0.1-0.4-0.1-0.6-0.1c-0.4,0-0.7,0.1-1,0.3
		s-0.6,0.5-0.9,0.9c-0.2,0.4-0.5,0.8-0.6,1.3c-0.2,0.5-0.2,1-0.2,1.6c0,0.3,0,0.6,0.1,0.8c0,0.2,0.1,0.4,0.2,0.6
		c0.1,0.2,0.2,0.3,0.4,0.4c0.2,0.1,0.4,0.2,0.7,0.2c0.3,0,0.5-0.1,0.8-0.2s0.6-0.4,1-0.8L381.8,142.2z"/>
	<path class="st6" d="M389.7,136.7l-2,8.7c0,0.2-0.1,0.4-0.1,0.5c0,0.2-0.1,0.3-0.1,0.4c0,0.3,0.1,0.5,0.2,0.6
		c0.1,0.1,0.3,0.2,0.6,0.2c0.1,0,0.2,0,0.4,0s0.3-0.1,0.4-0.1l-0.1,0.5c-0.4,0.2-0.8,0.3-1,0.4s-0.5,0.1-0.8,0.1
		c-0.4,0-0.7-0.1-0.9-0.3s-0.3-0.4-0.3-0.7c0-0.1,0-0.2,0-0.3s0.1-0.3,0.1-0.5l1.8-7.6c0-0.1,0.1-0.3,0.1-0.3c0-0.1,0-0.1,0-0.2
		c0-0.2,0-0.3-0.1-0.4c-0.1-0.1-0.1-0.2-0.2-0.2c-0.1,0-0.2-0.1-0.4-0.1s-0.3,0-0.5-0.1l0.1-0.4L389.7,136.7L389.7,136.7z"/>
	<path class="st6" d="M393.6,146.9c0,0.3-0.1,0.5-0.3,0.7c-0.2,0.2-0.4,0.3-0.7,0.3c-0.3,0-0.5-0.1-0.7-0.3s-0.3-0.4-0.3-0.7
		s0.1-0.5,0.3-0.7c0.2-0.2,0.4-0.3,0.7-0.3s0.5,0.1,0.7,0.3S393.6,146.6,393.6,146.9z"/>
</g>
</svg>
